M48
;Layer_Color=9474304
;FILE_FORMAT=2:5
INCH,LZ
;TYPE=PLATED
T1F00S00C0.01200
T2F00S00C0.03150
T3F00S00C0.03500
T4F00S00C0.12992
%
T01
X0343Y0214
X0347
X0351
X0355
X0359
X0363
X0367
X0371
X0375
Y0218
X0371
X0367
X0363
X0365Y0231
Y0235
Y0239
X0361
Y0235
X0357
X0353
Y0239
X0357
X035726Y02519
X03573Y0255
X0357Y0271
X0361
Y0275
X0357
X0353
Y0271
X0365
Y0275
Y0279
X0367Y0292
Y0296
X0363
X0359
X0355
X0351
X0347
X0343
X0363Y0292
X0371
Y0296
X0375
Y0292
X03765Y02625
X0377Y0247
T02
X0333Y0221
Y0228874
Y0236748
Y0244622
X03325Y0265
Y0272874
Y0280748
Y0288622
T03
X0374Y0285
T04
X035475Y0224256
Y0285744
X0408Y0255
M30
