M48
;Layer_Color=9474304
;FILE_FORMAT=2:5
INCH,LZ
;TYPE=PLATED
T1F00S00C0.01200
T2F00S00C0.03150
T3F00S00C0.03500
T4F00S00C0.12992
%
T01
X0343Y0214
X0347
X0351
X0355
X0359
X0363
Y0218
X0367
X0371
X0375
Y0214
X0371
X0367
X0365Y0231
Y0235
X0361
Y0239
X0357
X0353
Y0235
X0357
X0365Y0239
X0377Y0247
X03765Y02625
X0365Y0271
Y0275
Y0279
X0361Y0275
X0357
X0353
Y0271
X0357
X0361
X0359697Y0255
X0357Y02515
X0339Y0252
X0335
X0331
Y0258
X0335
X0339
X0343Y0296
X0347
X0351
X0355
X0359
X0363
Y0292
X0367
X0371
X0375
Y0296
X0371
X0367
T02
X0333Y0221
Y0228874
Y0236748
Y0244622
X03325Y0265
Y0272874
Y0280748
Y0288622
T03
X0374Y0285
T04
X035475Y0224256
Y0285744
X0408Y0255
M30
