G04 Layer_Color=255*
%FSLAX25Y25*%
%MOIN*%
G70*
G01*
G75*
%ADD13C,0.05000*%
%ADD14C,0.15748*%
%ADD15C,0.06300*%
G04:AMPARAMS|DCode=17|XSize=20mil|YSize=40mil|CornerRadius=5mil|HoleSize=0mil|Usage=FLASHONLY|Rotation=180.000|XOffset=0mil|YOffset=0mil|HoleType=Round|Shape=RoundedRectangle|*
%AMROUNDEDRECTD17*
21,1,0.02000,0.03000,0,0,180.0*
21,1,0.01000,0.04000,0,0,180.0*
1,1,0.01000,-0.00500,0.01500*
1,1,0.01000,0.00500,0.01500*
1,1,0.01000,0.00500,-0.01500*
1,1,0.01000,-0.00500,-0.01500*
%
%ADD17ROUNDEDRECTD17*%
%ADD18R,0.03937X0.03543*%
%ADD19R,0.02756X0.03543*%
%ADD20R,0.03150X0.03150*%
%ADD21R,0.03543X0.02756*%
D13*
X374000Y285000D02*
D03*
D14*
X354750Y224256D02*
D03*
Y285744D02*
D03*
X408000Y255000D02*
D03*
D15*
X332500Y288622D02*
D03*
Y280748D02*
D03*
Y272874D02*
D03*
Y265000D02*
D03*
X333000Y244622D02*
D03*
Y236748D02*
D03*
Y228874D02*
D03*
Y221000D02*
D03*
D17*
X381500Y244000D02*
D03*
X384500D02*
D03*
X374500D02*
D03*
X371500D02*
D03*
X381500Y266000D02*
D03*
X384500D02*
D03*
X374500D02*
D03*
X371500D02*
D03*
Y255000D02*
D03*
X374500D02*
D03*
D18*
X392500Y258150D02*
D03*
Y251850D02*
D03*
D19*
X366000Y259000D02*
D03*
X360488D02*
D03*
X360488Y251000D02*
D03*
X366000D02*
D03*
D20*
X384000Y251850D02*
D03*
Y258150D02*
D03*
D21*
X354000Y257756D02*
D03*
Y252244D02*
D03*
M02*
