G04 Layer_Color=32896*
%FSLAX25Y25*%
%MOIN*%
G70*
G01*
G75*
%ADD11C,0.01500*%
%ADD23C,0.01000*%
%ADD24C,0.00600*%
%ADD35C,0.00800*%
%ADD36C,0.00500*%
%ADD37R,0.00650X0.02300*%
%ADD38R,0.06700X0.01800*%
%ADD39R,0.00730X0.02560*%
D11*
X332500Y216826D02*
X338799D01*
X332500Y251063D02*
X338799D01*
Y214226D02*
Y216826D01*
Y251063D02*
Y253622D01*
X308800Y214226D02*
X338799D01*
X308800D02*
Y253596D01*
Y253622D02*
X338799D01*
X346079Y251835D02*
Y256165D01*
X355921Y251835D02*
Y256165D01*
X332500Y259700D02*
X338799D01*
X332500Y293937D02*
X338799D01*
Y257100D02*
Y259700D01*
Y293937D02*
Y296496D01*
X308800Y257100D02*
X338799D01*
X308800D02*
Y296470D01*
Y296496D02*
X338799D01*
X382900Y260306D02*
X387100D01*
X382900Y247694D02*
X387100D01*
X387950Y248544D02*
Y259456D01*
X382050Y248544D02*
Y259456D01*
X394575Y253803D02*
Y254197D01*
X391425Y253803D02*
Y254197D01*
X363378Y253803D02*
Y254197D01*
X360622Y253803D02*
Y254197D01*
D23*
X365272Y220350D02*
G03*
X405553Y243159I6978J34650D01*
G01*
X406056Y265853D02*
G03*
X364939Y289278I-33556J-11103D01*
G01*
D24*
X341334Y223999D02*
X342167D01*
X341750D01*
Y221917D01*
X342167Y221500D01*
X342583D01*
X343000Y221917D01*
X340501Y221500D02*
Y223999D01*
X339251D01*
X338835Y223583D01*
Y222750D01*
X339251Y222333D01*
X340501D01*
X338002Y221500D02*
X337169D01*
X337585D01*
Y223999D01*
X338002Y223583D01*
X342166Y259417D02*
X341750Y259001D01*
X340916D01*
X340500Y259417D01*
Y261084D01*
X340916Y261500D01*
X341750D01*
X342166Y261084D01*
X342999Y261500D02*
X343832D01*
X343416D01*
Y259001D01*
X342999Y259417D01*
X341834Y291499D02*
X342667D01*
X342250D01*
Y289417D01*
X342667Y289000D01*
X343084D01*
X343500Y289417D01*
X341001Y289000D02*
Y291499D01*
X339751D01*
X339335Y291083D01*
Y290250D01*
X339751Y289833D01*
X341001D01*
X336836Y289000D02*
X338502D01*
X336836Y290666D01*
Y291083D01*
X337252Y291499D01*
X338085D01*
X338502Y291083D01*
X389400Y235000D02*
Y236666D01*
X388567Y237499D01*
X387734Y236666D01*
Y235000D01*
Y236250D01*
X389400D01*
X385235Y235000D02*
X386901D01*
X385235Y236666D01*
Y237083D01*
X385651Y237499D01*
X386484D01*
X386901Y237083D01*
X384402Y234583D02*
X382735D01*
X381902Y237499D02*
Y235000D01*
X380236D01*
X376500D02*
Y236666D01*
X375667Y237499D01*
X374834Y236666D01*
Y235000D01*
Y236250D01*
X376500D01*
X372335Y235000D02*
X374001D01*
X372335Y236666D01*
Y237083D01*
X372751Y237499D01*
X373584D01*
X374001Y237083D01*
X371502Y234583D02*
X369835D01*
X369002Y237499D02*
Y235000D01*
Y236250D01*
X367336D01*
Y237499D01*
Y235000D01*
X388400Y270200D02*
Y271866D01*
X387567Y272699D01*
X386734Y271866D01*
Y270200D01*
Y271450D01*
X388400D01*
X385901Y270200D02*
X385068D01*
X385484D01*
Y272699D01*
X385901Y272283D01*
X383818Y269783D02*
X382152D01*
X381319Y272699D02*
Y270200D01*
X379653D01*
X376400Y270500D02*
Y272166D01*
X375567Y272999D01*
X374734Y272166D01*
Y270500D01*
Y271750D01*
X376400D01*
X373901Y270500D02*
X373068D01*
X373484D01*
Y272999D01*
X373901Y272583D01*
X371818Y270083D02*
X370152D01*
X369319Y272999D02*
Y270500D01*
Y271750D01*
X367653D01*
Y272999D01*
Y270500D01*
X368000Y255083D02*
X367583Y255499D01*
X366750D01*
X366334Y255083D01*
Y254666D01*
X366750Y254250D01*
X367167D01*
X366750D01*
X366334Y253833D01*
Y253416D01*
X366750Y253000D01*
X367583D01*
X368000Y253416D01*
X365501Y255499D02*
Y253833D01*
X364668Y253000D01*
X363835Y253833D01*
Y255499D01*
X363002Y255083D02*
X362585Y255499D01*
X361752D01*
X361335Y255083D01*
Y254666D01*
X361752Y254250D01*
X362169D01*
X361752D01*
X361335Y253833D01*
Y253416D01*
X361752Y253000D01*
X362585D01*
X363002Y253416D01*
X380000Y255499D02*
Y253000D01*
X378750D01*
X378334Y253416D01*
Y255083D01*
X378750Y255499D01*
X380000D01*
X377501Y253000D02*
X376668D01*
X377084D01*
Y255499D01*
X377501Y255083D01*
X399000Y253000D02*
Y255499D01*
X397750D01*
X397334Y255083D01*
Y254250D01*
X397750Y253833D01*
X399000D01*
X398167D02*
X397334Y253000D01*
X396501D02*
X395668D01*
X396084D01*
Y255499D01*
X396501Y255083D01*
X370000Y286499D02*
X368334D01*
X369167D01*
Y284000D01*
X367501D02*
Y286499D01*
X366251D01*
X365835Y286083D01*
Y285250D01*
X366251Y284833D01*
X367501D01*
X365002Y284000D02*
X364169D01*
X364585D01*
Y286499D01*
X365002Y286083D01*
X361334Y261083D02*
X361750Y261499D01*
X362583D01*
X363000Y261083D01*
Y259417D01*
X362583Y259000D01*
X361750D01*
X361334Y259417D01*
X358835Y259000D02*
X360501D01*
X358835Y260666D01*
Y261083D01*
X359251Y261499D01*
X360084D01*
X360501Y261083D01*
D35*
X387950Y259456D02*
G03*
X387100Y260306I-850J0D01*
G01*
X382900D02*
G03*
X382050Y259456I0J-850D01*
G01*
X387100Y247694D02*
G03*
X387950Y248544I0J850D01*
G01*
X382050D02*
G03*
X382900Y247694I850J0D01*
G01*
D36*
X385750Y240250D02*
X386200Y240700D01*
Y241750D01*
X380250Y240250D02*
X385750D01*
X379700Y240800D02*
X380250Y240250D01*
X379700Y240800D02*
Y241750D01*
Y245000D02*
X380400Y245700D01*
X379700Y244200D02*
Y245000D01*
X380400Y245700D02*
X385500D01*
X386200Y245000D01*
Y244200D02*
Y245000D01*
X376200Y244200D02*
Y245000D01*
X375500Y245700D02*
X376200Y245000D01*
X370400Y245700D02*
X375500D01*
X369700Y244200D02*
Y245000D01*
X370400Y245700D01*
X369700Y240800D02*
Y241750D01*
Y240800D02*
X370250Y240250D01*
X375750D01*
X376200Y240700D02*
Y241750D01*
X375750Y240250D02*
X376200Y240700D01*
X385750Y262250D02*
X386200Y262700D01*
Y263750D01*
X380250Y262250D02*
X385750D01*
X379700Y262800D02*
X380250Y262250D01*
X379700Y262800D02*
Y263750D01*
Y267000D02*
X380400Y267700D01*
X379700Y266200D02*
Y267000D01*
X380400Y267700D02*
X385500D01*
X386200Y267000D01*
Y266200D02*
Y267000D01*
X376200Y266200D02*
Y267000D01*
X375500Y267700D02*
X376200Y267000D01*
X370400Y267700D02*
X375500D01*
X369700Y266200D02*
Y267000D01*
X370400Y267700D01*
X369700Y262800D02*
Y263750D01*
Y262800D02*
X370250Y262250D01*
X375750D01*
X376200Y262700D02*
Y263750D01*
X375750Y262250D02*
X376200Y262700D01*
X375250Y251250D02*
X375700Y251700D01*
Y252750D01*
X369750Y251250D02*
X375250D01*
X369200Y251800D02*
X369750Y251250D01*
X369200Y251800D02*
Y252750D01*
Y256000D02*
X369900Y256700D01*
X369200Y255200D02*
Y256000D01*
X369900Y256700D02*
X375000D01*
X375700Y256000D01*
Y255200D02*
Y256000D01*
D37*
X388025Y259867D02*
D03*
D38*
X385000Y260867D02*
D03*
D39*
X382015Y259737D02*
D03*
M02*
