G04 Layer_Color=16711935*
%FSLAX25Y25*%
%MOIN*%
G70*
G01*
G75*
%ADD26C,0.05600*%
%ADD27C,0.16348*%
%ADD28C,0.06900*%
%ADD29C,0.01700*%
%ADD30R,0.11230X0.05128*%
G04:AMPARAMS|DCode=31|XSize=26mil|YSize=46mil|CornerRadius=8mil|HoleSize=0mil|Usage=FLASHONLY|Rotation=180.000|XOffset=0mil|YOffset=0mil|HoleType=Round|Shape=RoundedRectangle|*
%AMROUNDEDRECTD31*
21,1,0.02600,0.03000,0,0,180.0*
21,1,0.01000,0.04600,0,0,180.0*
1,1,0.01600,-0.00500,0.01500*
1,1,0.01600,0.00500,0.01500*
1,1,0.01600,0.00500,-0.01500*
1,1,0.01600,-0.00500,-0.01500*
%
%ADD31ROUNDEDRECTD31*%
%ADD32R,0.04537X0.04143*%
%ADD33R,0.03356X0.04143*%
%ADD34R,0.03750X0.03750*%
D26*
X374000Y285000D02*
D03*
D27*
X354750Y224256D02*
D03*
Y285744D02*
D03*
X408000Y255000D02*
D03*
D28*
X332500Y288622D02*
D03*
Y280748D02*
D03*
Y272874D02*
D03*
Y265000D02*
D03*
Y245748D02*
D03*
Y237874D02*
D03*
Y230000D02*
D03*
Y222126D02*
D03*
D29*
X378000Y265000D02*
D03*
X369000Y271000D02*
D03*
Y275000D02*
D03*
X365000D02*
D03*
Y271000D02*
D03*
Y279000D02*
D03*
X335000Y258000D02*
D03*
X339000D02*
D03*
X331000D02*
D03*
X340500Y214000D02*
D03*
X344500D02*
D03*
X348500D02*
D03*
X352500D02*
D03*
X356500D02*
D03*
X344500Y218000D02*
D03*
X340500D02*
D03*
X394000Y272000D02*
D03*
Y276000D02*
D03*
X398000D02*
D03*
Y272000D02*
D03*
X402000D02*
D03*
Y276000D02*
D03*
Y280000D02*
D03*
X398000D02*
D03*
X394000D02*
D03*
X391000Y230000D02*
D03*
Y234000D02*
D03*
X395000D02*
D03*
Y230000D02*
D03*
X399000D02*
D03*
Y234000D02*
D03*
X403000D02*
D03*
Y230000D02*
D03*
Y226000D02*
D03*
X399000D02*
D03*
X395000D02*
D03*
X391000D02*
D03*
X361000Y275000D02*
D03*
X357000D02*
D03*
X353000D02*
D03*
Y271000D02*
D03*
X357000D02*
D03*
X361000D02*
D03*
X369000Y279000D02*
D03*
X357000Y255000D02*
D03*
X355000Y250000D02*
D03*
X376000Y244000D02*
D03*
D30*
X351000Y260906D02*
D03*
Y249094D02*
D03*
D31*
X381500Y244000D02*
D03*
X384500D02*
D03*
X374500D02*
D03*
X371500D02*
D03*
X381500Y266000D02*
D03*
X384500D02*
D03*
X374500D02*
D03*
X371500D02*
D03*
X371000Y255000D02*
D03*
X374000D02*
D03*
D32*
X392000Y257150D02*
D03*
Y250850D02*
D03*
D33*
X364756Y259000D02*
D03*
X359244D02*
D03*
X359244Y251000D02*
D03*
X364756D02*
D03*
D34*
X385000Y251850D02*
D03*
Y258150D02*
D03*
M02*
