G04 Layer_Color=32896*
%FSLAX25Y25*%
%MOIN*%
G70*
G01*
G75*
%ADD11C,0.01200*%
%ADD23C,0.01000*%
%ADD24C,0.00600*%
D11*
X346079Y252835D02*
Y257165D01*
X355921Y252835D02*
Y257165D01*
X385750Y241250D02*
X386200Y241700D01*
Y242750D01*
X380250Y241250D02*
X385750D01*
X379700Y241800D02*
X380250Y241250D01*
X379700Y241800D02*
Y242750D01*
Y246000D02*
X380400Y246700D01*
X379700Y245200D02*
Y246000D01*
X380400Y246700D02*
X385500D01*
X386200Y246000D01*
Y245200D02*
Y246000D01*
X376200Y245200D02*
Y246000D01*
X375500Y246700D02*
X376200Y246000D01*
X370400Y246700D02*
X375500D01*
X369700Y245200D02*
Y246000D01*
X370400Y246700D01*
X369700Y241800D02*
Y242750D01*
Y241800D02*
X370250Y241250D01*
X375750D01*
X376200Y241700D02*
Y242750D01*
X375750Y241250D02*
X376200Y241700D01*
X385750Y263250D02*
X386200Y263700D01*
Y264750D01*
X380250Y263250D02*
X385750D01*
X379700Y263800D02*
X380250Y263250D01*
X379700Y263800D02*
Y264750D01*
Y268000D02*
X380400Y268700D01*
X379700Y267200D02*
Y268000D01*
X380400Y268700D02*
X385500D01*
X386200Y268000D01*
Y267200D02*
Y268000D01*
X376200Y267200D02*
Y268000D01*
X375500Y268700D02*
X376200Y268000D01*
X370400Y268700D02*
X375500D01*
X369700Y267200D02*
Y268000D01*
X370400Y268700D01*
X369700Y263800D02*
Y264750D01*
Y263800D02*
X370250Y263250D01*
X375750D01*
X376200Y263700D02*
Y264750D01*
X375750Y263250D02*
X376200Y263700D01*
X375250Y252250D02*
X375700Y252700D01*
Y253750D01*
X369750Y252250D02*
X375250D01*
X369200Y252800D02*
X369750Y252250D01*
X369200Y252800D02*
Y253750D01*
Y257000D02*
X369900Y257700D01*
X369200Y256200D02*
Y257000D01*
X369900Y257700D02*
X375000D01*
X375700Y257000D01*
Y256200D02*
Y257000D01*
X393575Y253803D02*
Y254197D01*
X390425Y253803D02*
Y254197D01*
X361803Y260378D02*
X362197D01*
X361803Y257622D02*
X362197D01*
X308800Y296496D02*
X338799D01*
X308800Y257100D02*
Y296470D01*
Y257100D02*
X338799D01*
Y293937D02*
Y296496D01*
Y257100D02*
Y259700D01*
X332500Y293937D02*
X338799D01*
X332500Y259700D02*
X338799D01*
X308800Y253622D02*
X338799D01*
X308800Y214226D02*
Y253596D01*
Y214226D02*
X338799D01*
Y251063D02*
Y253622D01*
Y214226D02*
Y216826D01*
X332500Y251063D02*
X338799D01*
X332500Y216826D02*
X338799D01*
X383819Y260906D02*
X386181D01*
X361803Y249622D02*
X362197D01*
X361803Y252378D02*
X362197D01*
D23*
X365272Y220350D02*
G03*
X405553Y243159I6978J34650D01*
G01*
X406056Y265853D02*
G03*
X364939Y289278I-33556J-11103D01*
G01*
D24*
X370000Y286499D02*
X368334D01*
X369167D01*
Y284000D01*
X367501D02*
Y286499D01*
X366251D01*
X365835Y286083D01*
Y285250D01*
X366251Y284833D01*
X367501D01*
X365002Y284000D02*
X364169D01*
X364585D01*
Y286499D01*
X365002Y286083D01*
X399000Y253000D02*
Y255499D01*
X397750D01*
X397334Y255083D01*
Y254250D01*
X397750Y253833D01*
X399000D01*
X398167D02*
X397334Y253000D01*
X396501D02*
X395668D01*
X396084D01*
Y255499D01*
X396501Y255083D01*
X382000Y256499D02*
Y254000D01*
X380750D01*
X380334Y254416D01*
Y256083D01*
X380750Y256499D01*
X382000D01*
X379501Y254000D02*
X378668D01*
X379084D01*
Y256499D01*
X379501Y256083D01*
X341834Y291499D02*
X342667D01*
X342250D01*
Y289417D01*
X342667Y289000D01*
X343084D01*
X343500Y289417D01*
X341001Y289000D02*
Y291499D01*
X339751D01*
X339335Y291083D01*
Y290250D01*
X339751Y289833D01*
X341001D01*
X336836Y289000D02*
X338502D01*
X336836Y290666D01*
Y291083D01*
X337252Y291499D01*
X338085D01*
X338502Y291083D01*
X341334Y223999D02*
X342167D01*
X341750D01*
Y221917D01*
X342167Y221500D01*
X342583D01*
X343000Y221917D01*
X340501Y221500D02*
Y223999D01*
X339251D01*
X338835Y223583D01*
Y222750D01*
X339251Y222333D01*
X340501D01*
X338002Y221500D02*
X337169D01*
X337585D01*
Y223999D01*
X338002Y223583D01*
X362334Y264083D02*
X362750Y264499D01*
X363583D01*
X364000Y264083D01*
Y262417D01*
X363583Y262000D01*
X362750D01*
X362334Y262417D01*
X359835Y262000D02*
X361501D01*
X359835Y263666D01*
Y264083D01*
X360251Y264499D01*
X361084D01*
X361501Y264083D01*
X342334Y256083D02*
X342750Y256499D01*
X343583D01*
X344000Y256083D01*
Y254416D01*
X343583Y254000D01*
X342750D01*
X342334Y254416D01*
X341501Y254000D02*
X340668D01*
X341084D01*
Y256499D01*
X341501Y256083D01*
X389000Y238000D02*
Y239666D01*
X388167Y240499D01*
X387334Y239666D01*
Y238000D01*
Y239250D01*
X389000D01*
X384835Y238000D02*
X386501D01*
X384835Y239666D01*
Y240083D01*
X385251Y240499D01*
X386084D01*
X386501Y240083D01*
X384002Y237583D02*
X382335D01*
X381502Y240499D02*
Y238000D01*
X379836D01*
X377000D02*
Y239666D01*
X376167Y240499D01*
X375334Y239666D01*
Y238000D01*
Y239250D01*
X377000D01*
X372835Y238000D02*
X374501D01*
X372835Y239666D01*
Y240083D01*
X373251Y240499D01*
X374084D01*
X374501Y240083D01*
X372002Y237583D02*
X370336D01*
X369502Y240499D02*
Y238000D01*
Y239250D01*
X367836D01*
Y240499D01*
Y238000D01*
X388000Y270000D02*
Y271666D01*
X387167Y272499D01*
X386334Y271666D01*
Y270000D01*
Y271250D01*
X388000D01*
X385501Y270000D02*
X384668D01*
X385084D01*
Y272499D01*
X385501Y272083D01*
X383418Y269584D02*
X381752D01*
X380919Y272499D02*
Y270000D01*
X379253D01*
X376000D02*
Y271666D01*
X375167Y272499D01*
X374334Y271666D01*
Y270000D01*
Y271250D01*
X376000D01*
X373501Y270000D02*
X372668D01*
X373084D01*
Y272499D01*
X373501Y272083D01*
X371418Y269584D02*
X369752D01*
X368919Y272499D02*
Y270000D01*
Y271250D01*
X367253D01*
Y272499D01*
Y270000D01*
X376000Y261083D02*
X375584Y261499D01*
X374750D01*
X374334Y261083D01*
Y260666D01*
X374750Y260250D01*
X375167D01*
X374750D01*
X374334Y259833D01*
Y259417D01*
X374750Y259000D01*
X375584D01*
X376000Y259417D01*
X373501Y261499D02*
Y259833D01*
X372668Y259000D01*
X371835Y259833D01*
Y261499D01*
X371002Y261083D02*
X370585Y261499D01*
X369752D01*
X369336Y261083D01*
Y260666D01*
X369752Y260250D01*
X370169D01*
X369752D01*
X369336Y259833D01*
Y259417D01*
X369752Y259000D01*
X370585D01*
X371002Y259417D01*
X362334Y247083D02*
X362750Y247499D01*
X363583D01*
X364000Y247083D01*
Y245416D01*
X363583Y245000D01*
X362750D01*
X362334Y245416D01*
X361501Y247083D02*
X361084Y247499D01*
X360251D01*
X359835Y247083D01*
Y246666D01*
X360251Y246250D01*
X360668D01*
X360251D01*
X359835Y245833D01*
Y245416D01*
X360251Y245000D01*
X361084D01*
X361501Y245416D01*
M02*
