G04 Layer_Color=32768*
%FSLAX25Y25*%
%MOIN*%
G70*
G01*
G75*
%ADD11C,0.01500*%
%ADD24C,0.00600*%
D11*
X383425Y250850D02*
X386575D01*
Y257150D01*
X383425D02*
X386575D01*
X383425Y250850D02*
Y257150D01*
D24*
X381064Y260299D02*
X382638D01*
Y259512D01*
X382375Y259250D01*
X381326D01*
X381064Y259512D01*
Y260299D01*
X382638Y258725D02*
Y258200D01*
Y258463D01*
X381064D01*
X381326Y258725D01*
X386969Y260299D02*
Y259250D01*
Y259774D01*
X388543D01*
X386969Y258725D02*
X388543D01*
Y257675D01*
X387231Y256101D02*
X386969Y256364D01*
Y256888D01*
X387231Y257151D01*
X387494D01*
X387756Y256888D01*
Y256364D01*
X388019Y256101D01*
X388281D01*
X388543Y256364D01*
Y256888D01*
X388281Y257151D01*
X386969Y255576D02*
X388281D01*
X388543Y255314D01*
Y254789D01*
X388281Y254527D01*
X386969D01*
X388543Y254002D02*
Y253477D01*
Y253740D01*
X386969D01*
X387231Y254002D01*
Y252690D02*
X386969Y252428D01*
Y251903D01*
X387231Y251641D01*
X388281D01*
X388543Y251903D01*
Y252428D01*
X388281Y252690D01*
X387231D01*
Y251116D02*
X386969Y250853D01*
Y250329D01*
X387231Y250066D01*
X388281D01*
X388543Y250329D01*
Y250853D01*
X388281Y251116D01*
X387231D01*
Y249542D02*
X386969Y249279D01*
Y248754D01*
X387231Y248492D01*
X387494D01*
X387756Y248754D01*
X388019Y248492D01*
X388281D01*
X388543Y248754D01*
Y249279D01*
X388281Y249542D01*
X388019D01*
X387756Y249279D01*
X387494Y249542D01*
X387231D01*
X387756Y249279D02*
Y248754D01*
X388543Y247967D02*
X387494D01*
X386969Y247443D01*
X387494Y246918D01*
X388543D01*
X387756D01*
Y247967D01*
X388543Y245868D02*
X388019Y246393D01*
X387494D01*
X386969Y245868D01*
Y245081D02*
Y244032D01*
Y244556D01*
X388543D01*
X387231Y243507D02*
X386969Y243244D01*
Y242720D01*
X387231Y242457D01*
X388281D01*
X388543Y242720D01*
Y243244D01*
X388281Y243507D01*
X387231D01*
X388543Y241145D02*
X386969D01*
X387756Y241933D01*
Y240883D01*
X388543Y240358D02*
X388019Y239833D01*
X387494D01*
X386969Y240358D01*
M02*
