G04 Layer_Color=16711935*
%FSLAX25Y25*%
%MOIN*%
G70*
G01*
G75*
%ADD27C,0.05600*%
%ADD28C,0.16348*%
%ADD29C,0.06900*%
%ADD30C,0.01200*%
G04:AMPARAMS|DCode=31|XSize=26mil|YSize=46mil|CornerRadius=8mil|HoleSize=0mil|Usage=FLASHONLY|Rotation=180.000|XOffset=0mil|YOffset=0mil|HoleType=Round|Shape=RoundedRectangle|*
%AMROUNDEDRECTD31*
21,1,0.02600,0.03000,0,0,180.0*
21,1,0.01000,0.04600,0,0,180.0*
1,1,0.01600,-0.00500,0.01500*
1,1,0.01600,0.00500,0.01500*
1,1,0.01600,0.00500,-0.01500*
1,1,0.01600,-0.00500,-0.01500*
%
%ADD31ROUNDEDRECTD31*%
%ADD32R,0.04537X0.04143*%
%ADD33R,0.03356X0.04143*%
%ADD34R,0.03750X0.03750*%
%ADD35R,0.04143X0.03356*%
D27*
X374000Y285000D02*
D03*
D28*
X354750Y224256D02*
D03*
Y285744D02*
D03*
X408000Y255000D02*
D03*
D29*
X332500Y288622D02*
D03*
Y280748D02*
D03*
Y272874D02*
D03*
Y265000D02*
D03*
X333000Y244622D02*
D03*
Y236748D02*
D03*
Y228874D02*
D03*
Y221000D02*
D03*
D30*
X359697Y255000D02*
D03*
X357000D02*
D03*
Y251500D02*
D03*
X376500Y262500D02*
D03*
X377000Y247000D02*
D03*
X361000Y239000D02*
D03*
X357000D02*
D03*
X353000D02*
D03*
Y235000D02*
D03*
X357000D02*
D03*
X361000D02*
D03*
X365000Y231000D02*
D03*
Y239000D02*
D03*
Y235000D02*
D03*
X363000Y292000D02*
D03*
X367000D02*
D03*
X371000D02*
D03*
X375000D02*
D03*
Y218000D02*
D03*
X371000D02*
D03*
X367000D02*
D03*
X363000D02*
D03*
X375000Y296000D02*
D03*
X371000D02*
D03*
X367000D02*
D03*
X363000D02*
D03*
X359000D02*
D03*
X355000D02*
D03*
X351000D02*
D03*
X347000D02*
D03*
X343000D02*
D03*
X365000Y275000D02*
D03*
Y271000D02*
D03*
Y279000D02*
D03*
X335000Y258000D02*
D03*
X339000D02*
D03*
X331000D02*
D03*
X343000Y214000D02*
D03*
X347000D02*
D03*
X351000D02*
D03*
X355000D02*
D03*
X359000D02*
D03*
X363000D02*
D03*
X367000D02*
D03*
X371000D02*
D03*
X375000D02*
D03*
X361000Y275000D02*
D03*
X357000D02*
D03*
X353000D02*
D03*
Y271000D02*
D03*
X357000D02*
D03*
X361000D02*
D03*
X339000Y252000D02*
D03*
X335000D02*
D03*
X331000D02*
D03*
D31*
X381500Y244000D02*
D03*
X384500D02*
D03*
X374500D02*
D03*
X371500D02*
D03*
X381500Y266000D02*
D03*
X384500D02*
D03*
X374500D02*
D03*
X371500D02*
D03*
Y255000D02*
D03*
X374500D02*
D03*
D32*
X392500Y258150D02*
D03*
Y251850D02*
D03*
D33*
X366000Y259000D02*
D03*
X360488D02*
D03*
X360488Y251000D02*
D03*
X366000D02*
D03*
D34*
X384000Y251850D02*
D03*
Y258150D02*
D03*
D35*
X354000Y257756D02*
D03*
Y252244D02*
D03*
M02*
