G04 Layer_Color=16711935*
%FSLAX25Y25*%
%MOIN*%
G70*
G01*
G75*
%ADD25C,0.16348*%
%ADD26C,0.05600*%
%ADD27C,0.06900*%
%ADD28C,0.01400*%
G04:AMPARAMS|DCode=29|XSize=26mil|YSize=46mil|CornerRadius=5mil|HoleSize=0mil|Usage=FLASHONLY|Rotation=180.000|XOffset=0mil|YOffset=0mil|HoleType=Round|Shape=RoundedRectangle|*
%AMROUNDEDRECTD29*
21,1,0.02600,0.03600,0,0,180.0*
21,1,0.01600,0.04600,0,0,180.0*
1,1,0.01000,-0.00800,0.01800*
1,1,0.01000,0.00800,0.01800*
1,1,0.01000,0.00800,-0.01800*
1,1,0.01000,-0.00800,-0.01800*
%
%ADD29ROUNDEDRECTD29*%
%ADD30R,0.04143X0.03356*%
%ADD31R,0.03356X0.04143*%
%ADD32R,0.03750X0.03750*%
D25*
X408000Y255000D02*
D03*
X354750Y285744D02*
D03*
Y224256D02*
D03*
D26*
X374000Y285000D02*
D03*
D27*
X332500Y265000D02*
D03*
Y272874D02*
D03*
Y280748D02*
D03*
Y288622D02*
D03*
X333000Y221000D02*
D03*
Y228874D02*
D03*
Y236748D02*
D03*
Y244622D02*
D03*
D28*
X357260Y255000D02*
D03*
X357260Y251900D02*
D03*
X375000Y261000D02*
D03*
Y249000D02*
D03*
X361000Y271000D02*
D03*
X357000D02*
D03*
X353000D02*
D03*
Y275000D02*
D03*
X357000D02*
D03*
X361000D02*
D03*
X375000Y214000D02*
D03*
X371000D02*
D03*
X367000D02*
D03*
X363000D02*
D03*
X359000D02*
D03*
X355000D02*
D03*
X351000D02*
D03*
X347000D02*
D03*
X343000D02*
D03*
X365000Y279000D02*
D03*
Y271000D02*
D03*
Y275000D02*
D03*
X343000Y296000D02*
D03*
X347000D02*
D03*
X351000D02*
D03*
X355000D02*
D03*
X359000D02*
D03*
X363000D02*
D03*
X367000D02*
D03*
X371000D02*
D03*
X375000D02*
D03*
X363000Y218000D02*
D03*
X367000D02*
D03*
X371000D02*
D03*
X375000D02*
D03*
Y292000D02*
D03*
X371000D02*
D03*
X367000D02*
D03*
X363000D02*
D03*
X365000Y235000D02*
D03*
Y239000D02*
D03*
Y231000D02*
D03*
X361000Y235000D02*
D03*
X357000D02*
D03*
X353000D02*
D03*
Y239000D02*
D03*
X357000D02*
D03*
X361000D02*
D03*
D29*
X384500Y244000D02*
D03*
X381500D02*
D03*
X371500D02*
D03*
X374500D02*
D03*
X384500Y266000D02*
D03*
X381500D02*
D03*
X371500D02*
D03*
X374500D02*
D03*
Y255000D02*
D03*
X371500D02*
D03*
D30*
X392500Y252244D02*
D03*
Y257756D02*
D03*
X354000Y252244D02*
D03*
Y257756D02*
D03*
D31*
X366000Y251000D02*
D03*
X360488D02*
D03*
X360488Y259000D02*
D03*
X366000D02*
D03*
D32*
X384000Y258150D02*
D03*
Y251850D02*
D03*
M02*
