G04 Layer_Physical_Order=2*
G04 Layer_Color=16711680*
%FSLAX25Y25*%
%MOIN*%
G70*
G01*
G75*
%ADD11C,0.01500*%
%ADD12C,0.06300*%
%ADD13C,0.05000*%
%ADD14C,0.15748*%
%ADD15C,0.02800*%
%ADD16R,0.10630X0.04528*%
G04:AMPARAMS|DCode=17|XSize=20mil|YSize=40mil|CornerRadius=5mil|HoleSize=0mil|Usage=FLASHONLY|Rotation=180.000|XOffset=0mil|YOffset=0mil|HoleType=Round|Shape=RoundedRectangle|*
%AMROUNDEDRECTD17*
21,1,0.02000,0.03000,0,0,180.0*
21,1,0.01000,0.04000,0,0,180.0*
1,1,0.01000,-0.00500,0.01500*
1,1,0.01000,0.00500,0.01500*
1,1,0.01000,0.00500,-0.01500*
1,1,0.01000,-0.00500,-0.01500*
%
%ADD17ROUNDEDRECTD17*%
%ADD18R,0.03937X0.03937*%
%ADD19R,0.03937X0.03543*%
%ADD20R,0.03543X0.02756*%
D11*
X369244Y265000D02*
X371500D01*
X360244Y255000D02*
X369244Y264000D01*
X342500Y255000D02*
X360244D01*
X353094Y248094D02*
X355000Y250000D01*
X342500Y240000D02*
Y255000D01*
X351000Y248094D02*
X353094D01*
X342500Y255000D02*
Y264000D01*
X332500Y230000D02*
X342500Y240000D01*
X333626Y272874D02*
X342500Y264000D01*
X374500Y243000D02*
X381500D01*
X332500Y272874D02*
X333626D01*
X374500Y265000D02*
X381500D01*
X327500Y283622D02*
X332500Y288622D01*
X327500Y250748D02*
Y283622D01*
Y250748D02*
X332500Y245748D01*
D12*
Y222126D02*
D03*
Y230000D02*
D03*
Y237874D02*
D03*
Y245748D02*
D03*
Y265000D02*
D03*
Y272874D02*
D03*
Y280748D02*
D03*
Y288622D02*
D03*
D13*
X374000Y285000D02*
D03*
D14*
X354750Y224256D02*
D03*
Y285744D02*
D03*
X408000Y255000D02*
D03*
D15*
X375000Y244000D02*
D03*
X378000Y264000D02*
D03*
X355000Y250000D02*
D03*
X369000Y271000D02*
D03*
Y275000D02*
D03*
X365000D02*
D03*
Y271000D02*
D03*
Y279000D02*
D03*
X355000Y255000D02*
D03*
X335000Y258000D02*
D03*
X339000D02*
D03*
X331000D02*
D03*
X340500Y214000D02*
D03*
X344500D02*
D03*
X348500D02*
D03*
X352500D02*
D03*
X356500D02*
D03*
X344500Y218000D02*
D03*
X340500D02*
D03*
X394000Y272000D02*
D03*
Y276000D02*
D03*
X398000D02*
D03*
Y272000D02*
D03*
X402000D02*
D03*
Y276000D02*
D03*
Y280000D02*
D03*
X398000D02*
D03*
X394000D02*
D03*
X391000Y230000D02*
D03*
Y234000D02*
D03*
X395000D02*
D03*
Y230000D02*
D03*
X399000D02*
D03*
Y234000D02*
D03*
X403000D02*
D03*
Y230000D02*
D03*
Y226000D02*
D03*
X399000D02*
D03*
X395000D02*
D03*
X391000D02*
D03*
X361000Y275000D02*
D03*
X357000D02*
D03*
X353000D02*
D03*
Y271000D02*
D03*
X357000D02*
D03*
X361000D02*
D03*
X369000Y279000D02*
D03*
D16*
X351000Y259906D02*
D03*
Y248094D02*
D03*
D17*
X381500Y243000D02*
D03*
X384500D02*
D03*
X374500D02*
D03*
X371500D02*
D03*
X381500Y265000D02*
D03*
X384500D02*
D03*
X374500D02*
D03*
X371500D02*
D03*
X371000Y254000D02*
D03*
X374000D02*
D03*
D18*
X385000Y250654D02*
D03*
Y257347D02*
D03*
D19*
X393000Y257150D02*
D03*
Y250850D02*
D03*
D20*
X362000Y251244D02*
D03*
Y256756D02*
D03*
M02*
