G04 Layer_Color=255*
%FSLAX25Y25*%
%MOIN*%
G70*
G01*
G75*
%ADD12C,0.06300*%
%ADD13C,0.15748*%
%ADD14C,0.05000*%
%ADD16R,0.02756X0.03543*%
%ADD17R,0.03150X0.03150*%
%ADD18R,0.03937X0.03543*%
G04:AMPARAMS|DCode=19|XSize=20mil|YSize=40mil|CornerRadius=5mil|HoleSize=0mil|Usage=FLASHONLY|Rotation=180.000|XOffset=0mil|YOffset=0mil|HoleType=Round|Shape=RoundedRectangle|*
%AMROUNDEDRECTD19*
21,1,0.02000,0.03000,0,0,180.0*
21,1,0.01000,0.04000,0,0,180.0*
1,1,0.01000,-0.00500,0.01500*
1,1,0.01000,0.00500,0.01500*
1,1,0.01000,0.00500,-0.01500*
1,1,0.01000,-0.00500,-0.01500*
%
%ADD19ROUNDEDRECTD19*%
%ADD20R,0.10630X0.04528*%
D12*
X332500Y222126D02*
D03*
Y230000D02*
D03*
Y237874D02*
D03*
Y245748D02*
D03*
Y265000D02*
D03*
Y272874D02*
D03*
Y280748D02*
D03*
Y288622D02*
D03*
D13*
X408000Y255000D02*
D03*
X354750Y285744D02*
D03*
Y224256D02*
D03*
D14*
X374000Y285000D02*
D03*
D16*
X364756Y251000D02*
D03*
X359244D02*
D03*
X359244Y259000D02*
D03*
X364756D02*
D03*
D17*
X385000Y258150D02*
D03*
Y251850D02*
D03*
D18*
X392000Y250850D02*
D03*
Y257150D02*
D03*
D19*
X374000Y255000D02*
D03*
X371000D02*
D03*
X371500Y266000D02*
D03*
X374500D02*
D03*
X384500D02*
D03*
X381500D02*
D03*
X371500Y244000D02*
D03*
X374500D02*
D03*
X384500D02*
D03*
X381500D02*
D03*
D20*
X351000Y249094D02*
D03*
Y260906D02*
D03*
M02*
