M48
;Layer_Color=9474304
;FILE_FORMAT=2:5
INCH,LZ
;TYPE=PLATED
T1F00S00C0.01500
T2F00S00C0.03150
T3F00S00C0.03500
T4F00S00C0.12992
%
T01
X03405Y0214
Y0218
X03445
Y0214
X03485
X03525
X03565
X0355Y025
X0357Y0255
Y0271
X0361
Y0275
X0357
X0353
Y0271
X0365
Y0275
Y0279
X0369
Y0275
Y0271
X0378Y0265
X0376Y0244
X0391Y0234
X0395
X0399
X0403
Y023
Y0226
X0399
X0395
X0391
Y023
X0395
X0399
X0398Y0272
X0402
Y0276
Y028
X0398
X0394
Y0276
X0398
X0394Y0272
X0339Y0258
X0335
X0331
T02
X03325Y0222126
Y023
Y0237874
Y0245748
Y0265
Y0272874
Y0280748
Y0288622
T03
X0374Y0285
T04
X035475Y0224256
Y0285744
X0408Y0255
M30
