G04 Layer_Physical_Order=2*
G04 Layer_Color=16711680*
%FSLAX25Y25*%
%MOIN*%
G70*
G01*
G75*
%ADD11C,0.01200*%
%ADD12C,0.05000*%
%ADD13C,0.15748*%
%ADD14C,0.06300*%
%ADD15C,0.02800*%
%ADD16R,0.10630X0.04528*%
G04:AMPARAMS|DCode=17|XSize=20mil|YSize=40mil|CornerRadius=5mil|HoleSize=0mil|Usage=FLASHONLY|Rotation=180.000|XOffset=0mil|YOffset=0mil|HoleType=Round|Shape=RoundedRectangle|*
%AMROUNDEDRECTD17*
21,1,0.02000,0.03000,0,0,180.0*
21,1,0.01000,0.04000,0,0,180.0*
1,1,0.01000,-0.00500,0.01500*
1,1,0.01000,0.00500,0.01500*
1,1,0.01000,0.00500,-0.01500*
1,1,0.01000,-0.00500,-0.01500*
%
%ADD17ROUNDEDRECTD17*%
%ADD18R,0.03937X0.03543*%
%ADD19R,0.02756X0.03543*%
%ADD20R,0.03150X0.03150*%
G36*
X376825Y298725D02*
X380622Y298225D01*
X384360Y297396D01*
X388012Y296245D01*
X391549Y294779D01*
X394946Y293011D01*
X398175Y290954D01*
X401213Y288623D01*
X404036Y286036D01*
X406623Y283213D01*
X408954Y280175D01*
X411011Y276946D01*
X412780Y273550D01*
X414245Y270012D01*
X415396Y266360D01*
X416225Y262622D01*
X416725Y258825D01*
X416810Y256872D01*
X416313Y256787D01*
X415867Y258259D01*
X415080Y259731D01*
X414021Y261021D01*
X412731Y262080D01*
X411259Y262867D01*
X409661Y263351D01*
X408000Y263515D01*
X406339Y263351D01*
X404741Y262867D01*
X403269Y262080D01*
X401979Y261021D01*
X400920Y259731D01*
X400133Y258259D01*
X399649Y256661D01*
X399485Y255000D01*
X399649Y253339D01*
X400133Y251741D01*
X400920Y250269D01*
X401979Y248979D01*
X403269Y247920D01*
X404741Y247133D01*
X406339Y246649D01*
X408000Y246485D01*
X409661Y246649D01*
X411259Y247133D01*
X412731Y247920D01*
X414021Y248979D01*
X415080Y250269D01*
X415867Y251741D01*
X416313Y253213D01*
X416810Y253128D01*
X416725Y251175D01*
X416225Y247378D01*
X415396Y243640D01*
X414245Y239988D01*
X412780Y236451D01*
X411011Y233054D01*
X408954Y229825D01*
X406623Y226787D01*
X404036Y223964D01*
X401213Y221377D01*
X398175Y219046D01*
X394946Y216989D01*
X391549Y215220D01*
X388012Y213755D01*
X384360Y212604D01*
X380622Y211775D01*
X376825Y211275D01*
X373471Y211129D01*
X373468Y211130D01*
X373000Y211224D01*
X313007D01*
X308723Y215507D01*
Y294493D01*
X312365Y298135D01*
X312365Y298135D01*
X313004Y298774D01*
X372503D01*
X372971Y298867D01*
X373008Y298891D01*
X376825Y298725D01*
D02*
G37*
%LPC*%
G36*
X367134Y250500D02*
X365256D01*
Y248228D01*
X367134D01*
Y250500D01*
D02*
G37*
G36*
X394969Y250350D02*
X392500D01*
Y248079D01*
X394969D01*
Y250350D01*
D02*
G37*
G36*
X391500Y253622D02*
X389032D01*
Y251350D01*
X391500D01*
Y253622D01*
D02*
G37*
G36*
X387175Y260324D02*
X382825D01*
Y255975D01*
X387175D01*
Y256926D01*
X389432D01*
Y254778D01*
X394568D01*
Y259521D01*
X389432D01*
Y259373D01*
X387175D01*
Y260324D01*
D02*
G37*
G36*
X394969Y253622D02*
X392500D01*
Y251350D01*
X394969D01*
Y253622D01*
D02*
G37*
G36*
X391500Y250350D02*
X389032D01*
Y248079D01*
X391500D01*
Y250350D01*
D02*
G37*
G36*
X332000Y221626D02*
X328380D01*
X328457Y221043D01*
X328875Y220033D01*
X329540Y219166D01*
X330407Y218501D01*
X331417Y218083D01*
X332000Y218006D01*
Y221626D01*
D02*
G37*
G36*
X354193Y232753D02*
X352546Y232481D01*
X350984Y231893D01*
X349566Y231012D01*
X348348Y229870D01*
X347376Y228514D01*
X346687Y226993D01*
X346308Y225367D01*
X346253Y223699D01*
X346525Y222052D01*
X347113Y220490D01*
X347995Y219073D01*
X349136Y217854D01*
X350493Y216882D01*
X352013Y216193D01*
X353639Y215814D01*
X355307Y215759D01*
X356954Y216031D01*
X358516Y216619D01*
X359934Y217501D01*
X361152Y218642D01*
X362124Y219999D01*
X362813Y221519D01*
X363192Y223145D01*
X363247Y224813D01*
X362975Y226460D01*
X362387Y228022D01*
X361505Y229440D01*
X360364Y230658D01*
X359008Y231630D01*
X357487Y232319D01*
X355861Y232698D01*
X354193Y232753D01*
D02*
G37*
G36*
X336620Y221626D02*
X333000D01*
Y218006D01*
X333583Y218083D01*
X334593Y218501D01*
X335460Y219166D01*
X336125Y220033D01*
X336543Y221043D01*
X336620Y221626D01*
D02*
G37*
G36*
X385000Y247029D02*
D01*
Y244500D01*
X386529D01*
Y245500D01*
X386413Y246085D01*
X386081Y246581D01*
X385585Y246913D01*
X385000Y247029D01*
D02*
G37*
G36*
X386529Y243500D02*
X385000D01*
Y240971D01*
X385585Y241087D01*
X386081Y241419D01*
X386413Y241915D01*
X386529Y242500D01*
Y243500D01*
D02*
G37*
G36*
X350500Y264169D02*
X344685D01*
Y261406D01*
X350500D01*
Y264169D01*
D02*
G37*
G36*
X355307Y294241D02*
X353639Y294186D01*
X352013Y293807D01*
X350493Y293118D01*
X349136Y292146D01*
X347995Y290928D01*
X347113Y289510D01*
X346525Y287948D01*
X346253Y286301D01*
X346308Y284632D01*
X346687Y283007D01*
X347376Y281486D01*
X348348Y280130D01*
X349566Y278989D01*
X350984Y278107D01*
X352546Y277519D01*
X354193Y277247D01*
X355861Y277302D01*
X357487Y277681D01*
X359008Y278370D01*
X360364Y279342D01*
X361505Y280560D01*
X362387Y281978D01*
X362975Y283540D01*
X363247Y285187D01*
X363192Y286855D01*
X362813Y288481D01*
X362124Y290001D01*
X361152Y291358D01*
X359934Y292499D01*
X358516Y293381D01*
X356954Y293969D01*
X355307Y294241D01*
D02*
G37*
G36*
X386529Y265500D02*
X385000D01*
Y262971D01*
X385585Y263087D01*
X386081Y263419D01*
X386413Y263915D01*
X386529Y264500D01*
Y265500D01*
D02*
G37*
G36*
X332500Y292404D02*
X331521Y292276D01*
X330609Y291898D01*
X329825Y291297D01*
X329224Y290513D01*
X328847Y289601D01*
X328718Y288622D01*
X328847Y287643D01*
X329123Y286975D01*
X326635Y284487D01*
X326370Y284090D01*
X326276Y283622D01*
Y250748D01*
X326370Y250280D01*
X326635Y249883D01*
X329123Y247395D01*
X328847Y246727D01*
X328718Y245748D01*
X328847Y244769D01*
X329224Y243857D01*
X329825Y243074D01*
X330609Y242472D01*
X331521Y242094D01*
X331759Y242063D01*
Y241559D01*
X331521Y241528D01*
X330609Y241150D01*
X329825Y240548D01*
X329224Y239765D01*
X328847Y238853D01*
X328718Y237874D01*
X328847Y236895D01*
X329224Y235983D01*
X329825Y235199D01*
X330609Y234598D01*
X331521Y234221D01*
X331759Y234189D01*
Y233685D01*
X331521Y233653D01*
X330609Y233276D01*
X329825Y232675D01*
X329224Y231891D01*
X328847Y230979D01*
X328718Y230000D01*
X328847Y229021D01*
X329224Y228109D01*
X329825Y227326D01*
X330609Y226724D01*
X331030Y226550D01*
Y226009D01*
X330407Y225751D01*
X329540Y225086D01*
X328875Y224219D01*
X328457Y223209D01*
X328380Y222626D01*
X332500D01*
X336620D01*
X336543Y223209D01*
X336125Y224219D01*
X335460Y225086D01*
X334593Y225751D01*
X333970Y226009D01*
Y226550D01*
X334391Y226724D01*
X335174Y227326D01*
X335776Y228109D01*
X336154Y229021D01*
X336282Y230000D01*
X336154Y230979D01*
X335877Y231647D01*
X343365Y239135D01*
X343630Y239532D01*
X343724Y240000D01*
Y253040D01*
X343865Y253135D01*
X344130Y253532D01*
X344179Y253777D01*
X355412D01*
X355558Y253558D01*
X356220Y253116D01*
X357000Y252961D01*
X357209Y252790D01*
X357224Y252330D01*
X356861Y251958D01*
X355407D01*
X355000Y252039D01*
X354593Y251958D01*
X345085D01*
Y246231D01*
X356915D01*
Y246805D01*
X361119D01*
X361587Y246898D01*
X361984Y247163D01*
X363043Y248222D01*
X363047Y248228D01*
X364256D01*
Y251000D01*
X364756D01*
Y251500D01*
X367134D01*
Y252777D01*
X369660D01*
X369707Y252707D01*
X370071Y252464D01*
X370500Y252379D01*
X371500D01*
X371929Y252464D01*
X372164Y252620D01*
X372221Y252630D01*
X372519Y252260D01*
X372512Y252242D01*
X370635Y250365D01*
X370370Y249968D01*
X370276Y249500D01*
Y246340D01*
X370207Y246293D01*
X369964Y245929D01*
X369879Y245500D01*
Y242500D01*
X369964Y242071D01*
X370207Y241707D01*
X370571Y241464D01*
X371000Y241378D01*
X372000D01*
X372429Y241464D01*
X372663Y241620D01*
X373000Y241674D01*
X373337Y241620D01*
X373571Y241464D01*
X374000Y241378D01*
X375000D01*
X375429Y241464D01*
X375793Y241707D01*
X375967Y241967D01*
X376000Y241961D01*
X376780Y242116D01*
X377442Y242558D01*
X377588Y242776D01*
X379878D01*
Y242500D01*
X379964Y242071D01*
X380207Y241707D01*
X380571Y241464D01*
X381000Y241378D01*
X382000D01*
X382429Y241464D01*
X382747Y241676D01*
X382919Y241419D01*
X383415Y241087D01*
X384000Y240971D01*
D01*
Y244000D01*
Y247029D01*
X383415Y246913D01*
X382919Y246581D01*
X382747Y246324D01*
X382429Y246536D01*
X382000Y246621D01*
X381000D01*
X380571Y246536D01*
X380207Y246293D01*
X379964Y245929D01*
X379878Y245500D01*
Y245223D01*
X377588D01*
X377442Y245442D01*
X376780Y245884D01*
X376000Y246039D01*
X375967Y246033D01*
X375793Y246293D01*
X375429Y246536D01*
X375000Y246621D01*
X374000D01*
X373571Y246536D01*
X373337Y246380D01*
X373176Y246354D01*
X372724Y246670D01*
Y248993D01*
X374357Y250627D01*
X382825D01*
Y249676D01*
X387175D01*
Y254025D01*
X382825D01*
Y253074D01*
X375931D01*
X375614Y253460D01*
X375622Y253500D01*
Y256500D01*
X375536Y256929D01*
X375293Y257293D01*
X375187Y257364D01*
X375130Y257650D01*
X374865Y258047D01*
X372724Y260189D01*
Y263530D01*
X373173Y263707D01*
X373207D01*
X373571Y263464D01*
X374000Y263379D01*
X375000D01*
X375429Y263464D01*
X375793Y263707D01*
X375825Y263755D01*
X376427Y263755D01*
X376558Y263558D01*
X377220Y263116D01*
X378000Y262961D01*
X378780Y263116D01*
X379442Y263558D01*
X379573Y263755D01*
X380175Y263755D01*
X380207Y263707D01*
X380571Y263464D01*
X381000Y263379D01*
X382000D01*
X382429Y263464D01*
X382747Y263676D01*
X382919Y263419D01*
X383415Y263087D01*
X384000Y262971D01*
D01*
Y266000D01*
Y269029D01*
X383415Y268913D01*
X382919Y268581D01*
X382747Y268324D01*
X382429Y268536D01*
X382000Y268621D01*
X381000D01*
X380571Y268536D01*
X380207Y268293D01*
X379964Y267929D01*
X379878Y267500D01*
Y267224D01*
X376121D01*
Y267500D01*
X376036Y267929D01*
X375793Y268293D01*
X375429Y268536D01*
X375000Y268621D01*
X374000D01*
X373571Y268536D01*
X373207Y268293D01*
X372793D01*
X372429Y268536D01*
X372000Y268621D01*
X371000D01*
X370571Y268536D01*
X370207Y268293D01*
X369964Y267929D01*
X369879Y267500D01*
Y264500D01*
X369964Y264071D01*
X370207Y263707D01*
X370276Y263661D01*
Y259682D01*
X370064Y259423D01*
X369796D01*
X369328Y259330D01*
X368931Y259065D01*
X367596Y257730D01*
X367134Y257922D01*
Y258500D01*
X364756D01*
X362378D01*
Y257224D01*
X362364D01*
X361895Y257130D01*
X361722Y257014D01*
X361222Y257282D01*
Y261372D01*
X357315D01*
Y264169D01*
X351500D01*
Y260906D01*
Y257642D01*
X356946D01*
X356993Y257512D01*
X356657Y256971D01*
X356220Y256884D01*
X355558Y256442D01*
X355412Y256224D01*
X343724D01*
Y264000D01*
X343630Y264468D01*
X343365Y264865D01*
X336175Y272056D01*
X336282Y272874D01*
X336154Y273853D01*
X335776Y274765D01*
X335174Y275549D01*
X334391Y276150D01*
X333479Y276528D01*
X333241Y276559D01*
Y277063D01*
X333479Y277095D01*
X334391Y277472D01*
X335174Y278074D01*
X335776Y278857D01*
X336154Y279769D01*
X336282Y280748D01*
X336154Y281727D01*
X335776Y282639D01*
X335174Y283422D01*
X334391Y284024D01*
X333479Y284401D01*
X333241Y284433D01*
Y284937D01*
X333479Y284968D01*
X334391Y285346D01*
X335174Y285947D01*
X335776Y286731D01*
X336154Y287643D01*
X336282Y288622D01*
X336154Y289601D01*
X335776Y290513D01*
X335174Y291297D01*
X334391Y291898D01*
X333479Y292276D01*
X332500Y292404D01*
D02*
G37*
G36*
X385000Y269029D02*
D01*
Y266500D01*
X386529D01*
Y267500D01*
X386413Y268085D01*
X386081Y268581D01*
X385585Y268913D01*
X385000Y269029D01*
D02*
G37*
G36*
X350500Y260406D02*
X344685D01*
Y257642D01*
X350500D01*
Y260406D01*
D02*
G37*
G36*
X374000Y288127D02*
X373191Y288020D01*
X372437Y287708D01*
X371789Y287211D01*
X371292Y286563D01*
X370980Y285809D01*
X370873Y285000D01*
X370980Y284191D01*
X371292Y283437D01*
X371789Y282789D01*
X372437Y282292D01*
X373191Y281980D01*
X374000Y281873D01*
X374809Y281980D01*
X375563Y282292D01*
X376211Y282789D01*
X376708Y283437D01*
X377020Y284191D01*
X377127Y285000D01*
X377020Y285809D01*
X376708Y286563D01*
X376211Y287211D01*
X375563Y287708D01*
X374809Y288020D01*
X374000Y288127D01*
D02*
G37*
G36*
X367134Y261772D02*
X365256D01*
Y259500D01*
X367134D01*
Y261772D01*
D02*
G37*
G36*
X364256D02*
X362378D01*
Y259500D01*
X364256D01*
Y261772D01*
D02*
G37*
%LPD*%
G36*
X341277Y263493D02*
Y254500D01*
Y240507D01*
X334147Y233377D01*
X333479Y233653D01*
X333241Y233685D01*
Y234189D01*
X333479Y234221D01*
X334391Y234598D01*
X335174Y235199D01*
X335776Y235983D01*
X336154Y236895D01*
X336282Y237874D01*
X336154Y238853D01*
X335776Y239765D01*
X335174Y240548D01*
X334391Y241150D01*
X333479Y241528D01*
X333241Y241559D01*
Y242063D01*
X333479Y242094D01*
X334391Y242472D01*
X335174Y243074D01*
X335776Y243857D01*
X336154Y244769D01*
X336282Y245748D01*
X336154Y246727D01*
X335776Y247639D01*
X335174Y248423D01*
X334391Y249024D01*
X333479Y249401D01*
X332500Y249530D01*
X331521Y249401D01*
X330853Y249125D01*
X328724Y251255D01*
Y262283D01*
X329223Y262453D01*
X329540Y262040D01*
X330407Y261375D01*
X331417Y260957D01*
X332000Y260880D01*
Y265000D01*
X332500D01*
Y265500D01*
X336620D01*
X336543Y266083D01*
X336125Y267093D01*
X335460Y267960D01*
X334593Y268625D01*
X333970Y268883D01*
Y269424D01*
X334391Y269598D01*
X334833Y269937D01*
X341277Y263493D01*
D02*
G37*
%LPC*%
G36*
X336620Y264500D02*
X333000D01*
Y260880D01*
X333583Y260957D01*
X334593Y261375D01*
X335460Y262040D01*
X336125Y262907D01*
X336543Y263917D01*
X336620Y264500D01*
D02*
G37*
%LPD*%
D11*
X332500Y230000D02*
X342500Y240000D01*
X333626Y272874D02*
X342500Y264000D01*
X374500Y244000D02*
X381500D01*
X332500Y272874D02*
X333626D01*
X374500Y266000D02*
X381500D01*
X327500Y283622D02*
X332500Y288622D01*
X327500Y250748D02*
Y283622D01*
Y250748D02*
X332500Y245748D01*
X371500Y259682D02*
Y266000D01*
X374000Y255000D02*
Y257182D01*
X371500Y244000D02*
Y249500D01*
X374000Y252000D01*
Y255000D01*
X374150Y251850D02*
X385000D01*
X374000Y252000D02*
X374150Y251850D01*
X385000Y258150D02*
X392000D01*
X392000Y258150D01*
X393000D01*
X342500Y240000D02*
Y254500D01*
Y264000D01*
X359244Y259000D02*
X359244Y259000D01*
X359244Y255000D02*
Y259000D01*
X342500Y254500D02*
X343000Y254000D01*
X356666Y248028D02*
X361119D01*
X362178Y249087D01*
Y253269D01*
X356666Y248028D02*
Y249362D01*
X372982Y258200D02*
X374000Y257182D01*
X371500Y259682D02*
X372982Y258200D01*
X362178Y253269D02*
X362909Y254000D01*
X370000D01*
X371000Y255000D01*
X361364D02*
X362364Y256000D01*
X359244Y251000D02*
Y255000D01*
X361364D01*
X343000D02*
X357000D01*
X359244D01*
X356028Y250000D02*
X356666Y249362D01*
X355000Y250000D02*
X356028D01*
X362364Y256000D02*
X367596D01*
X369796Y258200D01*
X372982D01*
D12*
X374000Y285000D02*
D03*
D13*
X354750Y224256D02*
D03*
Y285744D02*
D03*
X408000Y255000D02*
D03*
D14*
X332500Y288622D02*
D03*
Y280748D02*
D03*
Y272874D02*
D03*
Y265000D02*
D03*
Y245748D02*
D03*
Y237874D02*
D03*
Y230000D02*
D03*
Y222126D02*
D03*
D15*
X378000Y265000D02*
D03*
X369000Y271000D02*
D03*
Y275000D02*
D03*
X365000D02*
D03*
Y271000D02*
D03*
Y279000D02*
D03*
X335000Y258000D02*
D03*
X339000D02*
D03*
X331000D02*
D03*
X340500Y214000D02*
D03*
X344500D02*
D03*
X348500D02*
D03*
X352500D02*
D03*
X356500D02*
D03*
X344500Y218000D02*
D03*
X340500D02*
D03*
X394000Y272000D02*
D03*
Y276000D02*
D03*
X398000D02*
D03*
Y272000D02*
D03*
X402000D02*
D03*
Y276000D02*
D03*
Y280000D02*
D03*
X398000D02*
D03*
X394000D02*
D03*
X391000Y230000D02*
D03*
Y234000D02*
D03*
X395000D02*
D03*
Y230000D02*
D03*
X399000D02*
D03*
Y234000D02*
D03*
X403000D02*
D03*
Y230000D02*
D03*
Y226000D02*
D03*
X399000D02*
D03*
X395000D02*
D03*
X391000D02*
D03*
X361000Y275000D02*
D03*
X357000D02*
D03*
X353000D02*
D03*
Y271000D02*
D03*
X357000D02*
D03*
X361000D02*
D03*
X369000Y279000D02*
D03*
X357000Y255000D02*
D03*
X355000Y250000D02*
D03*
X376000Y244000D02*
D03*
D16*
X351000Y260906D02*
D03*
Y249094D02*
D03*
D17*
X381500Y244000D02*
D03*
X384500D02*
D03*
X374500D02*
D03*
X371500D02*
D03*
X381500Y266000D02*
D03*
X384500D02*
D03*
X374500D02*
D03*
X371500D02*
D03*
X371000Y255000D02*
D03*
X374000D02*
D03*
D18*
X392000Y257150D02*
D03*
Y250850D02*
D03*
D19*
X364756Y259000D02*
D03*
X359244D02*
D03*
X359244Y251000D02*
D03*
X364756D02*
D03*
D20*
X385000Y251850D02*
D03*
Y258150D02*
D03*
M02*
