G04 Layer_Physical_Order=1*
G04 Layer_Color=255*
%FSLAX25Y25*%
%MOIN*%
G70*
G01*
G75*
%ADD10O,0.04921X0.01378*%
%ADD11C,0.01500*%
%ADD12C,0.06300*%
%ADD13C,0.05000*%
%ADD14C,0.15748*%
%ADD15C,0.02800*%
D10*
X383622Y247323D02*
D03*
Y249882D02*
D03*
Y252441D02*
D03*
Y255000D02*
D03*
Y257559D02*
D03*
Y260118D02*
D03*
Y262677D02*
D03*
X361378Y247323D02*
D03*
Y249882D02*
D03*
Y252441D02*
D03*
Y255000D02*
D03*
Y257559D02*
D03*
Y260118D02*
D03*
Y262677D02*
D03*
D11*
X376840Y237850D02*
X381500Y242510D01*
Y246886D02*
X381937Y247323D01*
X381500Y242510D02*
Y246886D01*
X376305Y240850D02*
X379000Y243545D01*
X375000Y247457D02*
X379984Y252441D01*
X375000Y244000D02*
Y247457D01*
X337398Y240850D02*
X376305D01*
X332500Y245748D02*
X337398Y240850D01*
X332524Y237850D02*
X376840D01*
X332500Y237874D02*
X332524Y237850D01*
X379000Y243545D02*
Y247922D01*
X350374Y255000D02*
X361378D01*
X332500Y272874D02*
X350374Y255000D01*
X378000Y258000D02*
Y264000D01*
X374000Y284850D02*
Y285000D01*
X373850Y284700D02*
X374000Y284850D01*
X373850Y255988D02*
Y284700D01*
X381937Y247323D02*
X383622D01*
X378000Y258000D02*
X379411Y256589D01*
X361378Y247323D02*
X365185D01*
X373850Y255988D01*
X355000Y250000D02*
X357321Y252321D01*
X361258D01*
X361378Y252441D01*
X379000Y247922D02*
X380960Y249882D01*
X383622D01*
X379984Y252441D02*
X383622D01*
X381000Y255000D02*
X383622D01*
X380880Y255120D02*
X381000Y255000D01*
X380840Y255120D02*
X380880D01*
X379411Y256549D02*
X380840Y255120D01*
X327000Y243374D02*
Y275248D01*
X332500Y280748D01*
X327000Y243374D02*
X332500Y237874D01*
X379411Y256549D02*
Y256589D01*
D12*
X332500Y222126D02*
D03*
Y230000D02*
D03*
Y237874D02*
D03*
Y245748D02*
D03*
Y265000D02*
D03*
Y272874D02*
D03*
Y280748D02*
D03*
Y288622D02*
D03*
D13*
X374000Y285000D02*
D03*
D14*
X354750Y224256D02*
D03*
Y285744D02*
D03*
X408000Y255000D02*
D03*
D15*
X375000Y244000D02*
D03*
X378000Y264000D02*
D03*
X355000Y250000D02*
D03*
X369000Y271000D02*
D03*
Y275000D02*
D03*
X365000D02*
D03*
Y271000D02*
D03*
Y279000D02*
D03*
X355000Y255000D02*
D03*
X335000Y258000D02*
D03*
X339000D02*
D03*
X331000D02*
D03*
X340500Y214000D02*
D03*
X344500D02*
D03*
X348500D02*
D03*
X352500D02*
D03*
X356500D02*
D03*
X344500Y218000D02*
D03*
X340500D02*
D03*
X394000Y272000D02*
D03*
Y276000D02*
D03*
X398000D02*
D03*
Y272000D02*
D03*
X402000D02*
D03*
Y276000D02*
D03*
Y280000D02*
D03*
X398000D02*
D03*
X394000D02*
D03*
X391000Y230000D02*
D03*
Y234000D02*
D03*
X395000D02*
D03*
Y230000D02*
D03*
X399000D02*
D03*
Y234000D02*
D03*
X403000D02*
D03*
Y230000D02*
D03*
Y226000D02*
D03*
X399000D02*
D03*
X395000D02*
D03*
X391000D02*
D03*
X361000Y275000D02*
D03*
X357000D02*
D03*
X353000D02*
D03*
Y271000D02*
D03*
X357000D02*
D03*
X361000D02*
D03*
X369000Y279000D02*
D03*
M02*
