G04 Layer_Color=8388736*
%FSLAX25Y25*%
%MOIN*%
G70*
G01*
G75*
%ADD25O,0.05521X0.01978*%
%ADD26C,0.05600*%
%ADD27C,0.16348*%
%ADD28C,0.06900*%
%ADD29C,0.01700*%
D25*
X383622Y247323D02*
D03*
Y249882D02*
D03*
Y252441D02*
D03*
Y255000D02*
D03*
Y257559D02*
D03*
Y260118D02*
D03*
Y262677D02*
D03*
X361378Y247323D02*
D03*
Y249882D02*
D03*
Y252441D02*
D03*
Y255000D02*
D03*
Y257559D02*
D03*
Y260118D02*
D03*
Y262677D02*
D03*
D26*
X374000Y285000D02*
D03*
D27*
X354750Y224256D02*
D03*
Y285744D02*
D03*
X408000Y255000D02*
D03*
D28*
X332500Y288622D02*
D03*
Y280748D02*
D03*
Y272874D02*
D03*
Y265000D02*
D03*
Y245748D02*
D03*
Y237874D02*
D03*
Y230000D02*
D03*
Y222126D02*
D03*
D29*
X378000Y265000D02*
D03*
X369000Y271000D02*
D03*
Y275000D02*
D03*
X365000D02*
D03*
Y271000D02*
D03*
Y279000D02*
D03*
X335000Y258000D02*
D03*
X339000D02*
D03*
X331000D02*
D03*
X340500Y214000D02*
D03*
X344500D02*
D03*
X348500D02*
D03*
X352500D02*
D03*
X356500D02*
D03*
X344500Y218000D02*
D03*
X340500D02*
D03*
X394000Y272000D02*
D03*
Y276000D02*
D03*
X398000D02*
D03*
Y272000D02*
D03*
X402000D02*
D03*
Y276000D02*
D03*
Y280000D02*
D03*
X398000D02*
D03*
X394000D02*
D03*
X391000Y230000D02*
D03*
Y234000D02*
D03*
X395000D02*
D03*
Y230000D02*
D03*
X399000D02*
D03*
Y234000D02*
D03*
X403000D02*
D03*
Y230000D02*
D03*
Y226000D02*
D03*
X399000D02*
D03*
X395000D02*
D03*
X391000D02*
D03*
X361000Y275000D02*
D03*
X357000D02*
D03*
X353000D02*
D03*
Y271000D02*
D03*
X357000D02*
D03*
X361000D02*
D03*
X369000Y279000D02*
D03*
X357000Y255000D02*
D03*
X355000Y250000D02*
D03*
X376000Y244000D02*
D03*
M02*
