G04 Layer_Color=65535*
%FSLAX25Y25*%
%MOIN*%
G70*
G01*
G75*
%ADD11C,0.01200*%
%ADD21C,0.00984*%
%ADD22C,0.02362*%
%ADD23C,0.01000*%
%ADD24C,0.00600*%
G36*
X328000Y297000D02*
Y213000D01*
X313000D01*
X310000Y216000D01*
Y294000D01*
X313000Y297000D01*
X328000Y297000D01*
D02*
G37*
D11*
X379587Y244961D02*
Y265039D01*
X365413Y244961D02*
Y265039D01*
Y244961D02*
X379587D01*
X365413Y265039D02*
X379587D01*
X372500Y255000D02*
X392222Y220840D01*
X333055Y255000D02*
X372500D01*
X392222Y289160D01*
D21*
X384114Y244468D02*
G03*
X384114Y244468I-492J0D01*
G01*
D22*
X376831Y248898D02*
G03*
X376831Y248898I-1181J0D01*
G01*
D23*
X396122Y255000D02*
G03*
X396122Y255000I-23622J0D01*
G01*
D24*
X369999Y250500D02*
X367916D01*
X367500Y250083D01*
Y249250D01*
X367916Y248834D01*
X369999D01*
X367500Y248001D02*
Y247168D01*
Y247584D01*
X369999D01*
X369583Y248001D01*
X340999Y284000D02*
X338000D01*
Y282501D01*
X338500Y282001D01*
X339000D01*
X339499D01*
X339999Y282501D01*
Y284000D01*
Y281001D02*
X338000D01*
X339000D01*
X339499Y280501D01*
X339999Y280001D01*
Y279502D01*
X338000Y276502D02*
Y277502D01*
X338500Y278002D01*
X339499D01*
X339999Y277502D01*
Y276502D01*
X339499Y276003D01*
X339000D01*
Y278002D01*
X338000Y275003D02*
X339999D01*
Y273503D01*
X339499Y273004D01*
X338000D01*
X340499Y271504D02*
X339999D01*
Y272004D01*
Y271004D01*
Y271504D01*
X338500D01*
X338000Y271004D01*
X339999Y266506D02*
X338500D01*
X338000Y266006D01*
Y264506D01*
X337500D01*
X337000Y265006D01*
Y265506D01*
X338000Y264506D02*
X339999D01*
X338000Y263507D02*
Y262507D01*
Y263007D01*
X339999D01*
Y263507D01*
X338000Y249011D02*
Y248012D01*
Y248512D01*
X340999D01*
X340499Y249011D01*
Y246512D02*
X340999Y246012D01*
Y245013D01*
X340499Y244513D01*
X338500D01*
X338000Y245013D01*
Y246012D01*
X338500Y246512D01*
X340499D01*
X338000Y243513D02*
X338500D01*
Y243013D01*
X338000D01*
Y243513D01*
Y239015D02*
Y241014D01*
X339999Y239015D01*
X340499D01*
X340999Y239514D01*
Y240514D01*
X340499Y241014D01*
X340999Y238015D02*
Y236016D01*
X340499D01*
X338500Y238015D01*
X338000D01*
Y235016D02*
X338500D01*
Y234516D01*
X338000D01*
Y235016D01*
Y230517D02*
Y232517D01*
X339999Y230517D01*
X340499D01*
X340999Y231017D01*
Y232017D01*
X340499Y232517D01*
Y229518D02*
X340999Y229018D01*
Y228018D01*
X340499Y227518D01*
X338500D01*
X338000Y228018D01*
Y229018D01*
X338500Y229518D01*
X340499D01*
X338000Y226519D02*
Y225519D01*
Y226019D01*
X340999D01*
X340499Y226519D01*
X340999Y222020D02*
X340499Y223020D01*
X339499Y224019D01*
X338500D01*
X338000Y223520D01*
Y222520D01*
X338500Y222020D01*
X339000D01*
X339499Y222520D01*
Y224019D01*
X388500Y265000D02*
X390499D01*
X391499Y264000D01*
X390499Y263001D01*
X388500D01*
X390000D01*
Y265000D01*
X390999Y260002D02*
X391499Y260502D01*
Y261501D01*
X390999Y262001D01*
X390499D01*
X390000Y261501D01*
Y260502D01*
X389500Y260002D01*
X389000D01*
X388500Y260502D01*
Y261501D01*
X389000Y262001D01*
X391499Y257003D02*
Y259002D01*
X390000D01*
X390499Y258002D01*
Y257502D01*
X390000Y257003D01*
X389000D01*
X388500Y257502D01*
Y258502D01*
X389000Y259002D01*
X390999Y256003D02*
X391499Y255503D01*
Y254503D01*
X390999Y254004D01*
X389000D01*
X388500Y254503D01*
Y255503D01*
X389000Y256003D01*
X390999D01*
X388500Y251504D02*
X391499D01*
X390000Y253004D01*
Y251005D01*
X390999Y250005D02*
X391499Y249505D01*
Y248505D01*
X390999Y248006D01*
X390499D01*
X390000Y248505D01*
X389500Y248006D01*
X389000D01*
X388500Y248505D01*
Y249505D01*
X389000Y250005D01*
X389500D01*
X390000Y249505D01*
X390499Y250005D01*
X390999D01*
X390000Y249505D02*
Y248505D01*
X391499Y247006D02*
X388500D01*
Y245506D01*
X389000Y245006D01*
X389500D01*
X390000Y245506D01*
Y247006D01*
Y245506D01*
X390499Y245006D01*
X390999D01*
X391499Y245506D01*
Y247006D01*
M02*
