M48
;Layer_Color=9474304
;FILE_FORMAT=2:5
INCH,LZ
;TYPE=PLATED
T1F00S00C0.01500
T2F00S00C0.03150
T3F00S00C0.03500
T4F00S00C0.12992
%
T01
X03405Y0214
X03445
X03485
X03525
X03565
Y0218
X03525
X03485
X03445
X03405
X0346Y0246
X035
X0354
X0354441Y0252441
X0336Y0254
Y0258
X0332
Y0254
X0353Y0271
Y0275
X0357
X0361
X0365
X0369
Y0271
X0365
X0361
X0357
Y0279
X0361
X0365
X0369
X0353
X0377Y0263
X0375Y0244
X0391Y0234
Y023
X0395
Y0234
X0399
Y023
X0403
Y0234
Y0226
X0399
X0395
X0391
X0394Y0272
Y0276
X0398
Y0272
X0402
Y0276
Y028
X0398
X0394
T02
X03325Y0222126
Y023
Y0237874
Y0245748
Y0265
Y0272874
Y0280748
Y0288622
T03
X0387Y0279
T04
X0373Y022
Y029
X0408Y0255
M30
