G04 Layer_Physical_Order=1*
G04 Layer_Color=255*
%FSLAX25Y25*%
%MOIN*%
G70*
G01*
G75*
%ADD10O,0.04921X0.01378*%
%ADD11C,0.01200*%
%ADD12C,0.05000*%
%ADD13C,0.15748*%
%ADD14C,0.06300*%
%ADD15C,0.02800*%
G36*
X376825Y298725D02*
X380622Y298225D01*
X384360Y297396D01*
X388012Y296245D01*
X391549Y294779D01*
X394946Y293011D01*
X398175Y290954D01*
X401213Y288623D01*
X404036Y286036D01*
X406623Y283213D01*
X408954Y280175D01*
X411011Y276946D01*
X412780Y273550D01*
X414245Y270012D01*
X415396Y266360D01*
X416225Y262622D01*
X416725Y258825D01*
X416810Y256872D01*
X416313Y256787D01*
X415867Y258259D01*
X415080Y259731D01*
X414021Y261021D01*
X412731Y262080D01*
X411259Y262867D01*
X409661Y263351D01*
X408000Y263515D01*
X406339Y263351D01*
X404741Y262867D01*
X403269Y262080D01*
X401979Y261021D01*
X400920Y259731D01*
X400133Y258259D01*
X399649Y256661D01*
X399485Y255000D01*
X399649Y253339D01*
X400133Y251741D01*
X400920Y250269D01*
X401979Y248979D01*
X403269Y247920D01*
X404741Y247133D01*
X406339Y246649D01*
X408000Y246485D01*
X409661Y246649D01*
X411259Y247133D01*
X412731Y247920D01*
X414021Y248979D01*
X415080Y250269D01*
X415867Y251741D01*
X416313Y253213D01*
X416810Y253128D01*
X416725Y251175D01*
X416225Y247378D01*
X415396Y243640D01*
X414245Y239988D01*
X412780Y236451D01*
X411011Y233054D01*
X408954Y229825D01*
X406623Y226787D01*
X404036Y223964D01*
X401213Y221377D01*
X398175Y219046D01*
X394946Y216989D01*
X391549Y215220D01*
X388012Y213755D01*
X384360Y212604D01*
X380622Y211775D01*
X376825Y211275D01*
X373471Y211129D01*
X373468Y211130D01*
X373000Y211224D01*
X313007D01*
X308723Y215507D01*
Y294493D01*
X312365Y298135D01*
X312365Y298135D01*
X313004Y298774D01*
X372503D01*
X372971Y298867D01*
X373008Y298891D01*
X376825Y298725D01*
D02*
G37*
%LPC*%
G36*
X374000Y288127D02*
X373191Y288020D01*
X372437Y287708D01*
X371789Y287211D01*
X371292Y286563D01*
X370980Y285809D01*
X370873Y285000D01*
X370980Y284191D01*
X371292Y283437D01*
X371789Y282789D01*
X372437Y282292D01*
X372626Y282213D01*
Y256495D01*
X365179Y249048D01*
X364764Y249339D01*
X364772Y249382D01*
X361378D01*
X357984D01*
X358015Y249223D01*
X358389Y248664D01*
X358425Y248640D01*
X358501Y247988D01*
X358392Y247826D01*
X358292Y247323D01*
X358392Y246820D01*
X358677Y246393D01*
X359103Y246109D01*
X359606Y246009D01*
X363150D01*
X363606Y246099D01*
X365185D01*
X365653Y246192D01*
X366050Y246458D01*
X374715Y255123D01*
X374980Y255520D01*
X375074Y255988D01*
Y282089D01*
X375563Y282292D01*
X376211Y282789D01*
X376708Y283437D01*
X377020Y284191D01*
X377127Y285000D01*
X377020Y285809D01*
X376708Y286563D01*
X376211Y287211D01*
X375563Y287708D01*
X374809Y288020D01*
X374000Y288127D01*
D02*
G37*
G36*
X364772Y259618D02*
X361378D01*
X357984D01*
X358015Y259459D01*
X358168Y259231D01*
X358359Y258839D01*
X358168Y258447D01*
X358015Y258218D01*
X357984Y258059D01*
X361378D01*
X364772D01*
X364741Y258218D01*
X364588Y258447D01*
X364397Y258839D01*
X364588Y259231D01*
X364741Y259459D01*
X364772Y259618D01*
D02*
G37*
G36*
Y257059D02*
X361378D01*
X357625D01*
X357498Y256940D01*
X357000Y257039D01*
X356220Y256884D01*
X355558Y256442D01*
X355116Y255780D01*
X354961Y255000D01*
X355116Y254220D01*
X355558Y253558D01*
X355895Y253333D01*
X355958Y253210D01*
X355965Y252696D01*
X355258Y251988D01*
X355000Y252039D01*
X354220Y251884D01*
X353558Y251442D01*
X353116Y250780D01*
X352961Y250000D01*
X353116Y249220D01*
X353558Y248558D01*
X354220Y248116D01*
X355000Y247961D01*
X355780Y248116D01*
X356442Y248558D01*
X356884Y249220D01*
X357039Y250000D01*
X356988Y250258D01*
X357702Y250972D01*
X358090Y250653D01*
X358015Y250541D01*
X357984Y250382D01*
X361378D01*
X364772D01*
X364741Y250541D01*
X364367Y251099D01*
X364330Y251124D01*
X364255Y251776D01*
X364364Y251938D01*
X364464Y252441D01*
X364364Y252944D01*
X364079Y253370D01*
X364005Y253420D01*
Y254021D01*
X364079Y254071D01*
X364364Y254497D01*
X364464Y255000D01*
X364364Y255503D01*
X364255Y255665D01*
X364331Y256317D01*
X364367Y256341D01*
X364741Y256900D01*
X364772Y257059D01*
D02*
G37*
G36*
X332000Y221626D02*
X328380D01*
X328457Y221043D01*
X328875Y220033D01*
X329540Y219166D01*
X330407Y218501D01*
X331417Y218083D01*
X332000Y218006D01*
Y221626D01*
D02*
G37*
G36*
X354193Y232753D02*
X352546Y232481D01*
X350984Y231893D01*
X349566Y231012D01*
X348348Y229870D01*
X347376Y228514D01*
X346687Y226993D01*
X346308Y225367D01*
X346253Y223699D01*
X346525Y222052D01*
X347113Y220490D01*
X347995Y219073D01*
X349136Y217854D01*
X350493Y216882D01*
X352013Y216193D01*
X353639Y215814D01*
X355307Y215759D01*
X356954Y216031D01*
X358516Y216619D01*
X359934Y217501D01*
X361152Y218642D01*
X362124Y219999D01*
X362813Y221519D01*
X363192Y223145D01*
X363247Y224813D01*
X362975Y226460D01*
X362387Y228022D01*
X361505Y229440D01*
X360364Y230658D01*
X359008Y231630D01*
X357487Y232319D01*
X355861Y232698D01*
X354193Y232753D01*
D02*
G37*
G36*
X332500Y292404D02*
X331521Y292276D01*
X330609Y291898D01*
X329825Y291297D01*
X329224Y290513D01*
X328847Y289601D01*
X328718Y288622D01*
X328847Y287643D01*
X329224Y286731D01*
X329825Y285947D01*
X330609Y285346D01*
X331521Y284968D01*
X331759Y284937D01*
Y284433D01*
X331521Y284401D01*
X330609Y284024D01*
X329825Y283422D01*
X329224Y282639D01*
X328847Y281727D01*
X328718Y280748D01*
X328847Y279769D01*
X329123Y279101D01*
X327135Y277113D01*
X326870Y276716D01*
X326777Y276248D01*
Y242374D01*
X326870Y241906D01*
X327135Y241509D01*
X329123Y239521D01*
X328847Y238853D01*
X328718Y237874D01*
X328847Y236895D01*
X329224Y235983D01*
X329825Y235199D01*
X330609Y234598D01*
X331521Y234221D01*
X331759Y234189D01*
Y233685D01*
X331521Y233653D01*
X330609Y233276D01*
X329825Y232675D01*
X329224Y231891D01*
X328847Y230979D01*
X328718Y230000D01*
X328847Y229021D01*
X329224Y228109D01*
X329825Y227326D01*
X330609Y226724D01*
X331030Y226550D01*
Y226009D01*
X330407Y225751D01*
X329540Y225086D01*
X328875Y224219D01*
X328457Y223209D01*
X328380Y222626D01*
X332500D01*
X336620D01*
X336543Y223209D01*
X336125Y224219D01*
X335460Y225086D01*
X334593Y225751D01*
X333970Y226009D01*
Y226550D01*
X334391Y226724D01*
X335174Y227326D01*
X335776Y228109D01*
X336154Y229021D01*
X336282Y230000D01*
X336154Y230979D01*
X335776Y231891D01*
X335174Y232675D01*
X334391Y233276D01*
X333479Y233653D01*
X333241Y233685D01*
Y234189D01*
X333479Y234221D01*
X334391Y234598D01*
X335174Y235199D01*
X335776Y235983D01*
X336042Y236627D01*
X376840D01*
X377309Y236720D01*
X377706Y236985D01*
X382365Y241645D01*
X382630Y242041D01*
X382723Y242510D01*
Y246009D01*
X385394D01*
X385897Y246109D01*
X386323Y246393D01*
X386608Y246820D01*
X386708Y247323D01*
X386608Y247826D01*
X386323Y248252D01*
X386249Y248302D01*
Y248903D01*
X386323Y248953D01*
X386608Y249379D01*
X386708Y249882D01*
X386608Y250385D01*
X386323Y250811D01*
X386249Y250861D01*
Y251462D01*
X386323Y251512D01*
X386608Y251938D01*
X386708Y252441D01*
X386608Y252944D01*
X386323Y253370D01*
X386249Y253420D01*
Y254021D01*
X386323Y254071D01*
X386608Y254497D01*
X386708Y255000D01*
X386608Y255503D01*
X386499Y255665D01*
X386575Y256317D01*
X386611Y256341D01*
X386985Y256900D01*
X387016Y257059D01*
X383622D01*
Y258059D01*
X387016D01*
X386985Y258218D01*
X386832Y258447D01*
X386641Y258839D01*
X386832Y259231D01*
X386985Y259459D01*
X387016Y259618D01*
X383622D01*
X380228D01*
X380259Y259459D01*
X380412Y259231D01*
X380603Y258839D01*
X380412Y258447D01*
X380259Y258218D01*
X380239Y258115D01*
X379760Y257970D01*
X379223Y258507D01*
Y263412D01*
X379442Y263558D01*
X379884Y264220D01*
X380039Y265000D01*
X379884Y265780D01*
X379442Y266442D01*
X378780Y266884D01*
X378000Y267039D01*
X377220Y266884D01*
X376558Y266442D01*
X376116Y265780D01*
X375961Y265000D01*
X376116Y264220D01*
X376558Y263558D01*
X376777Y263412D01*
Y258000D01*
X376870Y257532D01*
X377135Y257135D01*
X378466Y255804D01*
X378546Y255684D01*
X379975Y254255D01*
X380095Y254175D01*
X380105Y254165D01*
X380091Y253999D01*
X380023Y253788D01*
X379949Y253658D01*
X379516Y253571D01*
X379119Y253306D01*
X375135Y249322D01*
X374870Y248925D01*
X374777Y248457D01*
Y245588D01*
X374558Y245442D01*
X374116Y244780D01*
X373961Y244000D01*
X374116Y243220D01*
X374548Y242573D01*
X374530Y242479D01*
X374383Y242073D01*
X337905D01*
X335877Y244101D01*
X336154Y244769D01*
X336282Y245748D01*
X336154Y246727D01*
X335776Y247639D01*
X335174Y248423D01*
X334391Y249024D01*
X333479Y249401D01*
X332500Y249530D01*
X331521Y249401D01*
X330609Y249024D01*
X329825Y248423D01*
X329724Y248290D01*
X329223Y248459D01*
Y261665D01*
X329724Y261899D01*
X330407Y261375D01*
X331417Y260957D01*
X332000Y260880D01*
Y265000D01*
X332500D01*
Y265500D01*
X336620D01*
X336543Y266083D01*
X336125Y267093D01*
X335460Y267960D01*
X334593Y268625D01*
X333970Y268883D01*
Y269424D01*
X334391Y269598D01*
X335174Y270199D01*
X335776Y270983D01*
X336154Y271895D01*
X336282Y272874D01*
X336154Y273853D01*
X335776Y274765D01*
X335174Y275549D01*
X334391Y276150D01*
X333479Y276528D01*
X333241Y276559D01*
Y277063D01*
X333479Y277095D01*
X334391Y277472D01*
X335174Y278074D01*
X335776Y278857D01*
X336154Y279769D01*
X336282Y280748D01*
X336154Y281727D01*
X335776Y282639D01*
X335174Y283422D01*
X334391Y284024D01*
X333479Y284401D01*
X333241Y284433D01*
Y284937D01*
X333479Y284968D01*
X334391Y285346D01*
X335174Y285947D01*
X335776Y286731D01*
X336154Y287643D01*
X336282Y288622D01*
X336154Y289601D01*
X335776Y290513D01*
X335174Y291297D01*
X334391Y291898D01*
X333479Y292276D01*
X332500Y292404D01*
D02*
G37*
G36*
X336620Y221626D02*
X333000D01*
Y218006D01*
X333583Y218083D01*
X334593Y218501D01*
X335460Y219166D01*
X336125Y220033D01*
X336543Y221043D01*
X336620Y221626D01*
D02*
G37*
G36*
X363150Y264399D02*
X361878D01*
Y263177D01*
X364772D01*
X364741Y263336D01*
X364367Y263895D01*
X363809Y264268D01*
X363150Y264399D01*
D02*
G37*
G36*
X383122D02*
X381850D01*
X381191Y264268D01*
X380633Y263895D01*
X380259Y263336D01*
X380228Y263177D01*
X383122D01*
Y264399D01*
D02*
G37*
G36*
X355307Y294241D02*
X353639Y294186D01*
X352013Y293807D01*
X350493Y293118D01*
X349136Y292146D01*
X347995Y290928D01*
X347113Y289510D01*
X346525Y287948D01*
X346253Y286301D01*
X346308Y284632D01*
X346687Y283007D01*
X347376Y281486D01*
X348348Y280130D01*
X349566Y278989D01*
X350984Y278107D01*
X352546Y277519D01*
X354193Y277247D01*
X355861Y277302D01*
X357487Y277681D01*
X359008Y278370D01*
X360364Y279342D01*
X361505Y280560D01*
X362387Y281978D01*
X362975Y283540D01*
X363247Y285187D01*
X363192Y286855D01*
X362813Y288481D01*
X362124Y290001D01*
X361152Y291358D01*
X359934Y292499D01*
X358516Y293381D01*
X356954Y293969D01*
X355307Y294241D01*
D02*
G37*
G36*
X385394Y264399D02*
X384122D01*
Y263177D01*
X387016D01*
X386985Y263336D01*
X386611Y263895D01*
X386053Y264268D01*
X385394Y264399D01*
D02*
G37*
G36*
X387016Y262177D02*
X383622D01*
X380228D01*
X380259Y262018D01*
X380633Y261459D01*
Y261336D01*
X380259Y260777D01*
X380228Y260618D01*
X383622D01*
X387016D01*
X386985Y260777D01*
X386611Y261336D01*
Y261459D01*
X386985Y262018D01*
X387016Y262177D01*
D02*
G37*
G36*
X364772D02*
X361378D01*
X357984D01*
X358015Y262018D01*
X358389Y261459D01*
Y261336D01*
X358015Y260777D01*
X357984Y260618D01*
X361378D01*
X364772D01*
X364741Y260777D01*
X364367Y261336D01*
Y261459D01*
X364741Y262018D01*
X364772Y262177D01*
D02*
G37*
G36*
X360878Y264399D02*
X359606D01*
X358947Y264268D01*
X358389Y263895D01*
X358015Y263336D01*
X357984Y263177D01*
X360878D01*
Y264399D01*
D02*
G37*
G36*
X336620Y264500D02*
X333000D01*
Y260880D01*
X333583Y260957D01*
X334593Y261375D01*
X335460Y262040D01*
X336125Y262907D01*
X336543Y263917D01*
X336620Y264500D01*
D02*
G37*
%LPD*%
D10*
X383622Y247323D02*
D03*
Y249882D02*
D03*
Y252441D02*
D03*
Y255000D02*
D03*
Y257559D02*
D03*
Y260118D02*
D03*
Y262677D02*
D03*
X361378Y247323D02*
D03*
Y249882D02*
D03*
Y252441D02*
D03*
Y255000D02*
D03*
Y257559D02*
D03*
Y260118D02*
D03*
Y262677D02*
D03*
D11*
X376840Y237850D02*
X381500Y242510D01*
Y246886D02*
X381937Y247323D01*
X381500Y242510D02*
Y246886D01*
X332500Y245748D02*
X337398Y240850D01*
X332524Y237850D02*
X376840D01*
X332500Y237874D02*
X332524Y237850D01*
X378000Y258000D02*
Y264000D01*
X374000Y284850D02*
Y285000D01*
X373850Y284700D02*
X374000Y284850D01*
X373850Y255988D02*
Y284700D01*
X381937Y247323D02*
X383622D01*
X378000Y258000D02*
X379411Y256589D01*
X361378Y247323D02*
X365185D01*
X373850Y255988D01*
X379000Y247922D02*
X380960Y249882D01*
X383622D01*
X379984Y252441D02*
X383622D01*
X381000Y255000D02*
X383622D01*
X380880Y255120D02*
X381000Y255000D01*
X380840Y255120D02*
X380880D01*
X379411Y256549D02*
X380840Y255120D01*
X379411Y256549D02*
Y256589D01*
X361319Y254941D02*
X361378Y255000D01*
X357000Y254941D02*
X361319D01*
X357400Y252400D02*
X358077D01*
X358118Y252441D01*
X361378D01*
X357000Y252000D02*
X357400Y252400D01*
X355000Y250000D02*
X357000Y252000D01*
X376000Y248457D02*
X379984Y252441D01*
X376000Y244000D02*
Y248457D01*
X376527Y240850D02*
X379000Y243323D01*
X337398Y240850D02*
X376527D01*
X379000Y243323D02*
Y247922D01*
X328000Y242374D02*
X332500Y237874D01*
X328000Y242374D02*
Y276248D01*
X332500Y280748D01*
D12*
X374000Y285000D02*
D03*
D13*
X354750Y224256D02*
D03*
Y285744D02*
D03*
X408000Y255000D02*
D03*
D14*
X332500Y288622D02*
D03*
Y280748D02*
D03*
Y272874D02*
D03*
Y265000D02*
D03*
Y245748D02*
D03*
Y237874D02*
D03*
Y230000D02*
D03*
Y222126D02*
D03*
D15*
X378000Y265000D02*
D03*
X369000Y271000D02*
D03*
Y275000D02*
D03*
X365000D02*
D03*
Y271000D02*
D03*
Y279000D02*
D03*
X335000Y258000D02*
D03*
X339000D02*
D03*
X331000D02*
D03*
X340500Y214000D02*
D03*
X344500D02*
D03*
X348500D02*
D03*
X352500D02*
D03*
X356500D02*
D03*
X344500Y218000D02*
D03*
X340500D02*
D03*
X394000Y272000D02*
D03*
Y276000D02*
D03*
X398000D02*
D03*
Y272000D02*
D03*
X402000D02*
D03*
Y276000D02*
D03*
Y280000D02*
D03*
X398000D02*
D03*
X394000D02*
D03*
X391000Y230000D02*
D03*
Y234000D02*
D03*
X395000D02*
D03*
Y230000D02*
D03*
X399000D02*
D03*
Y234000D02*
D03*
X403000D02*
D03*
Y230000D02*
D03*
Y226000D02*
D03*
X399000D02*
D03*
X395000D02*
D03*
X391000D02*
D03*
X361000Y275000D02*
D03*
X357000D02*
D03*
X353000D02*
D03*
Y271000D02*
D03*
X357000D02*
D03*
X361000D02*
D03*
X369000Y279000D02*
D03*
X357000Y255000D02*
D03*
X355000Y250000D02*
D03*
X376000Y244000D02*
D03*
M02*
