G04 Layer_Physical_Order=2*
G04 Layer_Color=16711680*
%FSLAX25Y25*%
%MOIN*%
G70*
G01*
G75*
%ADD11C,0.01200*%
%ADD12C,0.01000*%
%ADD13C,0.05000*%
%ADD14C,0.15748*%
%ADD15C,0.06300*%
%ADD16C,0.02500*%
G04:AMPARAMS|DCode=17|XSize=20mil|YSize=40mil|CornerRadius=5mil|HoleSize=0mil|Usage=FLASHONLY|Rotation=180.000|XOffset=0mil|YOffset=0mil|HoleType=Round|Shape=RoundedRectangle|*
%AMROUNDEDRECTD17*
21,1,0.02000,0.03000,0,0,180.0*
21,1,0.01000,0.04000,0,0,180.0*
1,1,0.01000,-0.00500,0.01500*
1,1,0.01000,0.00500,0.01500*
1,1,0.01000,0.00500,-0.01500*
1,1,0.01000,-0.00500,-0.01500*
%
%ADD17ROUNDEDRECTD17*%
%ADD18R,0.03937X0.03543*%
%ADD19R,0.02756X0.03543*%
%ADD20R,0.03150X0.03150*%
%ADD21R,0.03543X0.02756*%
G36*
X376825Y298725D02*
X380622Y298225D01*
X384360Y297396D01*
X388012Y296245D01*
X391549Y294779D01*
X394946Y293011D01*
X398175Y290954D01*
X401213Y288623D01*
X404036Y286036D01*
X406623Y283213D01*
X408954Y280175D01*
X411011Y276946D01*
X412780Y273550D01*
X414245Y270012D01*
X415396Y266360D01*
X416225Y262622D01*
X416725Y258825D01*
X416810Y256872D01*
X416313Y256787D01*
X415867Y258259D01*
X415080Y259731D01*
X414021Y261021D01*
X412731Y262080D01*
X411259Y262867D01*
X409661Y263351D01*
X408000Y263515D01*
X406339Y263351D01*
X404741Y262867D01*
X403269Y262080D01*
X401979Y261021D01*
X400920Y259731D01*
X400133Y258259D01*
X399649Y256661D01*
X399485Y255000D01*
X399649Y253339D01*
X400133Y251741D01*
X400920Y250269D01*
X401979Y248979D01*
X403269Y247920D01*
X404741Y247133D01*
X406339Y246649D01*
X408000Y246485D01*
X409661Y246649D01*
X411259Y247133D01*
X412731Y247920D01*
X414021Y248979D01*
X415080Y250269D01*
X415867Y251741D01*
X416313Y253213D01*
X416810Y253128D01*
X416725Y251175D01*
X416225Y247378D01*
X415396Y243640D01*
X414245Y239988D01*
X412780Y236451D01*
X411011Y233054D01*
X408954Y229825D01*
X406623Y226787D01*
X404036Y223964D01*
X401213Y221377D01*
X398175Y219046D01*
X394946Y216989D01*
X391549Y215220D01*
X388012Y213755D01*
X384360Y212604D01*
X380622Y211775D01*
X376825Y211275D01*
X373471Y211129D01*
X373468Y211130D01*
X373000Y211224D01*
X311507D01*
X308723Y214007D01*
Y295993D01*
X311504Y298774D01*
X372503D01*
X372971Y298867D01*
X373008Y298891D01*
X376825Y298725D01*
D02*
G37*
%LPC*%
G36*
X392000Y251350D02*
X389531D01*
Y249079D01*
X392000D01*
Y251350D01*
D02*
G37*
G36*
X368378Y250500D02*
X366500D01*
Y248228D01*
X368378D01*
Y250500D01*
D02*
G37*
G36*
X395468Y251350D02*
X393000D01*
Y249079D01*
X395468D01*
Y251350D01*
D02*
G37*
G36*
Y254622D02*
X393000D01*
Y252350D01*
X395468D01*
Y254622D01*
D02*
G37*
G36*
X392000D02*
X389531D01*
Y252350D01*
X392000D01*
Y254622D01*
D02*
G37*
G36*
X385000Y247029D02*
D01*
Y244500D01*
X386529D01*
Y245500D01*
X386413Y246085D01*
X386081Y246581D01*
X385585Y246913D01*
X385000Y247029D01*
D02*
G37*
G36*
X332500Y220500D02*
X328880D01*
X328957Y219917D01*
X329375Y218907D01*
X330040Y218040D01*
X330907Y217375D01*
X331917Y216957D01*
X332500Y216880D01*
Y220500D01*
D02*
G37*
G36*
X354193Y232753D02*
X352546Y232481D01*
X350984Y231893D01*
X349566Y231012D01*
X348348Y229870D01*
X347376Y228514D01*
X346687Y226993D01*
X346308Y225367D01*
X346253Y223699D01*
X346525Y222052D01*
X347113Y220490D01*
X347995Y219073D01*
X349136Y217854D01*
X350493Y216882D01*
X352013Y216193D01*
X353639Y215814D01*
X355307Y215759D01*
X356954Y216031D01*
X358516Y216619D01*
X359934Y217501D01*
X361152Y218642D01*
X362124Y219999D01*
X362813Y221519D01*
X363192Y223145D01*
X363247Y224813D01*
X362975Y226460D01*
X362387Y228022D01*
X361505Y229440D01*
X360364Y230658D01*
X359008Y231630D01*
X357487Y232319D01*
X355861Y232698D01*
X354193Y232753D01*
D02*
G37*
G36*
X337120Y220500D02*
X333500D01*
Y216880D01*
X334083Y216957D01*
X335093Y217375D01*
X335960Y218040D01*
X336625Y218907D01*
X337043Y219917D01*
X337120Y220500D01*
D02*
G37*
G36*
X386529Y243500D02*
X385000D01*
Y240971D01*
X385585Y241087D01*
X386081Y241419D01*
X386413Y241915D01*
X386529Y242500D01*
Y243500D01*
D02*
G37*
G36*
X365000Y240886D02*
X364278Y240743D01*
X363666Y240334D01*
X363257Y239722D01*
X363255Y239710D01*
X362745D01*
X362743Y239722D01*
X362334Y240334D01*
X361722Y240743D01*
X361000Y240886D01*
X360278Y240743D01*
X359666Y240334D01*
X359257Y239722D01*
X359255Y239710D01*
X358745D01*
X358743Y239722D01*
X358334Y240334D01*
X357722Y240743D01*
X357000Y240886D01*
X356278Y240743D01*
X355666Y240334D01*
X355257Y239722D01*
X355255Y239710D01*
X354745D01*
X354743Y239722D01*
X354334Y240334D01*
X353722Y240743D01*
X353000Y240886D01*
X352278Y240743D01*
X351666Y240334D01*
X351257Y239722D01*
X351114Y239000D01*
X351257Y238278D01*
X351666Y237666D01*
X352278Y237257D01*
X352290Y237255D01*
Y236745D01*
X352278Y236743D01*
X351666Y236334D01*
X351257Y235722D01*
X351114Y235000D01*
X351257Y234278D01*
X351666Y233666D01*
X352278Y233257D01*
X353000Y233114D01*
X353722Y233257D01*
X354334Y233666D01*
X354743Y234278D01*
X354745Y234290D01*
X355255D01*
X355257Y234278D01*
X355666Y233666D01*
X356278Y233257D01*
X357000Y233114D01*
X357722Y233257D01*
X358334Y233666D01*
X358743Y234278D01*
X358745Y234290D01*
X359255D01*
X359257Y234278D01*
X359666Y233666D01*
X360278Y233257D01*
X361000Y233114D01*
X361722Y233257D01*
X362334Y233666D01*
X362743Y234278D01*
X362745Y234290D01*
X363255D01*
X363257Y234278D01*
X363666Y233666D01*
X364278Y233257D01*
X364290Y233255D01*
Y232745D01*
X364278Y232743D01*
X363666Y232334D01*
X363257Y231722D01*
X363114Y231000D01*
X363257Y230278D01*
X363666Y229666D01*
X364278Y229257D01*
X365000Y229114D01*
X365722Y229257D01*
X366334Y229666D01*
X366743Y230278D01*
X366886Y231000D01*
X366743Y231722D01*
X366334Y232334D01*
X365722Y232743D01*
X365710Y232745D01*
Y233255D01*
X365722Y233257D01*
X366334Y233666D01*
X366743Y234278D01*
X366886Y235000D01*
X366743Y235722D01*
X366334Y236334D01*
X365722Y236743D01*
X365710Y236745D01*
Y237255D01*
X365722Y237257D01*
X366334Y237666D01*
X366743Y238278D01*
X366886Y239000D01*
X366743Y239722D01*
X366334Y240334D01*
X365722Y240743D01*
X365000Y240886D01*
D02*
G37*
G36*
X385000Y269029D02*
D01*
Y266500D01*
X386529D01*
Y267500D01*
X386413Y268085D01*
X386081Y268581D01*
X385585Y268913D01*
X385000Y269029D01*
D02*
G37*
G36*
X355307Y294241D02*
X353639Y294186D01*
X352013Y293807D01*
X350493Y293118D01*
X349136Y292146D01*
X347995Y290928D01*
X347113Y289510D01*
X346525Y287948D01*
X346253Y286301D01*
X346308Y284632D01*
X346687Y283007D01*
X347376Y281486D01*
X348348Y280130D01*
X349566Y278989D01*
X350984Y278107D01*
X352546Y277519D01*
X354193Y277247D01*
X355861Y277302D01*
X357487Y277681D01*
X359008Y278370D01*
X360364Y279342D01*
X361505Y280560D01*
X362387Y281978D01*
X362975Y283540D01*
X363247Y285187D01*
X363192Y286855D01*
X362813Y288481D01*
X362124Y290001D01*
X361152Y291358D01*
X359934Y292499D01*
X358516Y293381D01*
X356954Y293969D01*
X355307Y294241D01*
D02*
G37*
G36*
X386529Y265500D02*
X385000D01*
Y262971D01*
X385585Y263087D01*
X386081Y263419D01*
X386413Y263915D01*
X386529Y264500D01*
Y265500D01*
D02*
G37*
G36*
X332500Y292404D02*
X331521Y292276D01*
X330609Y291898D01*
X329825Y291297D01*
X329224Y290513D01*
X328847Y289601D01*
X328718Y288622D01*
X328847Y287643D01*
X329165Y286873D01*
X326707Y284415D01*
X326464Y284051D01*
X326378Y283622D01*
X326378Y283622D01*
Y250748D01*
X326378Y250748D01*
X326464Y250319D01*
X326707Y249955D01*
X329909Y246753D01*
X329724Y246513D01*
X329346Y245601D01*
X329218Y244622D01*
X329346Y243643D01*
X329724Y242731D01*
X330326Y241948D01*
X331109Y241346D01*
X332021Y240968D01*
X332259Y240937D01*
Y240433D01*
X332021Y240402D01*
X331109Y240024D01*
X330326Y239422D01*
X329724Y238639D01*
X329346Y237727D01*
X329218Y236748D01*
X329346Y235769D01*
X329724Y234857D01*
X330326Y234073D01*
X331109Y233472D01*
X332021Y233095D01*
X332259Y233063D01*
Y232559D01*
X332021Y232527D01*
X331109Y232150D01*
X330326Y231549D01*
X329724Y230765D01*
X329346Y229853D01*
X329218Y228874D01*
X329346Y227895D01*
X329724Y226983D01*
X330326Y226200D01*
X331109Y225598D01*
X331530Y225424D01*
Y224883D01*
X330907Y224625D01*
X330040Y223960D01*
X329375Y223093D01*
X328957Y222083D01*
X328880Y221500D01*
X333000D01*
X337120D01*
X337043Y222083D01*
X336625Y223093D01*
X335960Y223960D01*
X335093Y224625D01*
X334470Y224883D01*
Y225424D01*
X334891Y225598D01*
X335675Y226200D01*
X336276Y226983D01*
X336653Y227895D01*
X336782Y228874D01*
X336653Y229853D01*
X336276Y230765D01*
X335675Y231549D01*
X335672Y231586D01*
X343293Y239207D01*
X343293Y239207D01*
X343536Y239571D01*
X343622Y240000D01*
X343621Y240000D01*
Y253777D01*
X351628D01*
Y250266D01*
X355599D01*
X355666Y250166D01*
X355777Y250093D01*
Y249641D01*
X355870Y249173D01*
X356135Y248776D01*
X357748Y247163D01*
X358145Y246898D01*
X358613Y246805D01*
X362363D01*
X362831Y246898D01*
X363228Y247163D01*
X364200Y248135D01*
X364263Y248228D01*
X365500D01*
Y251000D01*
X366000D01*
Y251500D01*
X368378D01*
Y253142D01*
X369950D01*
X369964Y253071D01*
X370207Y252707D01*
X370571Y252464D01*
X371000Y252379D01*
X372000D01*
X372106Y252400D01*
X372353Y251939D01*
X370707Y250293D01*
X370464Y249929D01*
X370378Y249500D01*
X370378Y249500D01*
Y246408D01*
X370207Y246293D01*
X369964Y245929D01*
X369879Y245500D01*
Y242500D01*
X369964Y242071D01*
X370207Y241707D01*
X370571Y241464D01*
X371000Y241378D01*
X372000D01*
X372429Y241464D01*
X372793Y241707D01*
X373207D01*
X373571Y241464D01*
X374000Y241378D01*
X375000D01*
X375429Y241464D01*
X375793Y241707D01*
X376036Y242071D01*
X376121Y242500D01*
Y242588D01*
X376622Y242852D01*
X377000Y242776D01*
X377468Y242870D01*
X377481Y242879D01*
X379878D01*
Y242500D01*
X379964Y242071D01*
X380207Y241707D01*
X380571Y241464D01*
X381000Y241378D01*
X382000D01*
X382429Y241464D01*
X382747Y241676D01*
X382919Y241419D01*
X383415Y241087D01*
X384000Y240971D01*
D01*
Y244000D01*
Y247029D01*
X383415Y246913D01*
X382919Y246581D01*
X382747Y246324D01*
X382429Y246536D01*
X382000Y246621D01*
X381000D01*
X380571Y246536D01*
X380207Y246293D01*
X379964Y245929D01*
X379878Y245500D01*
Y245122D01*
X378223D01*
Y245593D01*
X378334Y245666D01*
X378743Y246278D01*
X378886Y247000D01*
X378743Y247722D01*
X378334Y248334D01*
X377722Y248743D01*
X377000Y248886D01*
X376278Y248743D01*
X375666Y248334D01*
X375257Y247722D01*
X375114Y247000D01*
X374679Y246621D01*
X374000D01*
X373571Y246536D01*
X373207Y246293D01*
X373074D01*
X372621Y246722D01*
Y249035D01*
X374315Y250729D01*
X381825D01*
Y249676D01*
X386175D01*
Y254025D01*
X381825D01*
Y252972D01*
X376526D01*
X376116Y253472D01*
X376121Y253500D01*
Y256500D01*
X376036Y256929D01*
X375793Y257293D01*
X375429Y257536D01*
X375034Y257615D01*
X374793Y257975D01*
X374793Y257975D01*
X373775Y258993D01*
X373775Y258993D01*
X372621Y260146D01*
Y263592D01*
X372793Y263707D01*
X373207D01*
X373571Y263464D01*
X374000Y263379D01*
X374306D01*
X374689Y262878D01*
X374614Y262500D01*
X374757Y261778D01*
X375166Y261166D01*
X375778Y260757D01*
X376500Y260614D01*
X377222Y260757D01*
X377834Y261166D01*
X378243Y261778D01*
X378386Y262500D01*
X378243Y263222D01*
X377834Y263834D01*
X377724Y263907D01*
Y264879D01*
X379878D01*
Y264500D01*
X379964Y264071D01*
X380207Y263707D01*
X380571Y263464D01*
X381000Y263379D01*
X382000D01*
X382429Y263464D01*
X382747Y263676D01*
X382919Y263419D01*
X383415Y263087D01*
X384000Y262971D01*
D01*
Y266000D01*
Y269029D01*
X383415Y268913D01*
X382919Y268581D01*
X382747Y268324D01*
X382429Y268536D01*
X382000Y268621D01*
X381000D01*
X380571Y268536D01*
X380207Y268293D01*
X379964Y267929D01*
X379878Y267500D01*
Y267122D01*
X376981D01*
X376968Y267130D01*
X376500Y267224D01*
X376467Y267217D01*
X376121Y267500D01*
X376036Y267929D01*
X375793Y268293D01*
X375429Y268536D01*
X375000Y268621D01*
X374000D01*
X373571Y268536D01*
X373207Y268293D01*
X372793D01*
X372429Y268536D01*
X372000Y268621D01*
X371000D01*
X370571Y268536D01*
X370207Y268293D01*
X369964Y267929D01*
X369879Y267500D01*
Y264500D01*
X369964Y264071D01*
X370207Y263707D01*
X370378Y263592D01*
Y259682D01*
X370378Y259682D01*
X370083Y259321D01*
X369937D01*
X369508Y259236D01*
X369144Y258993D01*
X369144Y258993D01*
X368840Y258689D01*
X368378Y258880D01*
Y261772D01*
X366500D01*
Y259000D01*
X366000D01*
Y258500D01*
X363622D01*
Y257633D01*
X363459Y257187D01*
X363029Y257101D01*
X362966Y257059D01*
X362466Y257327D01*
Y261372D01*
X358510D01*
Y256817D01*
X358059Y256523D01*
X357938Y256598D01*
X357722Y256743D01*
X357000Y256886D01*
X356772Y257074D01*
Y257256D01*
X351228D01*
Y256224D01*
X343621D01*
Y264000D01*
X343622Y264000D01*
X343536Y264429D01*
X343293Y264793D01*
X343293Y264793D01*
X336158Y271928D01*
X336282Y272874D01*
X336154Y273853D01*
X335776Y274765D01*
X335174Y275549D01*
X334391Y276150D01*
X333479Y276528D01*
X333241Y276559D01*
Y277063D01*
X333479Y277095D01*
X334391Y277472D01*
X335174Y278074D01*
X335776Y278857D01*
X336154Y279769D01*
X336282Y280748D01*
X336154Y281727D01*
X335776Y282639D01*
X335174Y283422D01*
X334391Y284024D01*
X333479Y284401D01*
X333241Y284433D01*
Y284937D01*
X333479Y284968D01*
X334391Y285346D01*
X335174Y285947D01*
X335776Y286731D01*
X336154Y287643D01*
X336282Y288622D01*
X336154Y289601D01*
X335776Y290513D01*
X335174Y291297D01*
X334391Y291898D01*
X333479Y292276D01*
X332500Y292404D01*
D02*
G37*
G36*
X365500Y261772D02*
X363622D01*
Y259500D01*
X365500D01*
Y261772D01*
D02*
G37*
G36*
X353500Y260134D02*
X351228D01*
Y258256D01*
X353500D01*
Y260134D01*
D02*
G37*
G36*
X374000Y288127D02*
X373191Y288020D01*
X372437Y287708D01*
X371789Y287211D01*
X371292Y286563D01*
X370980Y285809D01*
X370873Y285000D01*
X370980Y284191D01*
X371292Y283437D01*
X371789Y282789D01*
X372437Y282292D01*
X373191Y281980D01*
X374000Y281873D01*
X374809Y281980D01*
X375563Y282292D01*
X376211Y282789D01*
X376708Y283437D01*
X377020Y284191D01*
X377127Y285000D01*
X377020Y285809D01*
X376708Y286563D01*
X376211Y287211D01*
X375563Y287708D01*
X374809Y288020D01*
X374000Y288127D01*
D02*
G37*
G36*
X395069Y260521D02*
X389932D01*
Y259271D01*
X386175D01*
Y260324D01*
X381825D01*
Y255975D01*
X386175D01*
Y257028D01*
X389932D01*
Y255778D01*
X395069D01*
Y260521D01*
D02*
G37*
G36*
X356772Y260134D02*
X354500D01*
Y258256D01*
X356772D01*
Y260134D01*
D02*
G37*
%LPD*%
G36*
X341378Y263535D02*
Y255500D01*
X341378Y255500D01*
X341378Y255500D01*
Y240465D01*
X337230Y236316D01*
X336756Y236549D01*
X336782Y236748D01*
X336653Y237727D01*
X336276Y238639D01*
X335675Y239422D01*
X334891Y240024D01*
X333979Y240402D01*
X333741Y240433D01*
Y240937D01*
X333979Y240968D01*
X334891Y241346D01*
X335675Y241948D01*
X336276Y242731D01*
X336653Y243643D01*
X336782Y244622D01*
X336653Y245601D01*
X336276Y246513D01*
X335675Y247297D01*
X334891Y247898D01*
X333979Y248275D01*
X333000Y248404D01*
X332021Y248275D01*
X331694Y248140D01*
X328622Y251213D01*
Y262416D01*
X329121Y262586D01*
X329540Y262040D01*
X330407Y261375D01*
X331417Y260957D01*
X332000Y260880D01*
Y265000D01*
X332500D01*
Y265500D01*
X336620D01*
X336543Y266083D01*
X336125Y267093D01*
X335460Y267960D01*
X334593Y268625D01*
X333970Y268883D01*
Y269424D01*
X334391Y269598D01*
X334914Y270000D01*
X341378Y263535D01*
D02*
G37*
%LPC*%
G36*
X336620Y264500D02*
X333000D01*
Y260880D01*
X333583Y260957D01*
X334593Y261375D01*
X335460Y262040D01*
X336125Y262907D01*
X336543Y263917D01*
X336620Y264500D01*
D02*
G37*
%LPD*%
D11*
X357000Y249641D02*
Y251500D01*
Y251760D01*
X343000Y255000D02*
X357000D01*
Y249641D02*
X358613Y248028D01*
X356260Y252500D02*
X357000Y251760D01*
X355256Y252500D02*
X356260D01*
X358613Y248028D02*
X362363D01*
X376500Y262500D02*
Y266000D01*
X377000Y244000D02*
Y247000D01*
X370365Y254365D02*
X371000Y255000D01*
X364163Y254365D02*
X370365D01*
X362363Y248028D02*
X363335Y249000D01*
Y253537D01*
X364163Y254365D01*
D12*
X357000Y255000D02*
X362393D01*
X342500Y255500D02*
X343000Y255000D01*
X342500Y255500D02*
Y264000D01*
X367803Y256065D02*
X369937Y258200D01*
X363459Y256065D02*
X367803D01*
X362393Y255000D02*
X363459Y256065D01*
X376500Y266000D02*
X381500D01*
X374500D02*
X376500D01*
X377000Y244000D02*
X381500D01*
X374500D02*
X377000D01*
X371500Y259682D02*
X372982Y258200D01*
X369937D02*
X372982D01*
X374000Y257182D01*
Y252000D02*
Y257182D01*
X327500Y283622D02*
X332500Y288622D01*
X327500Y250748D02*
Y283622D01*
Y250748D02*
X332500Y245748D01*
X371500Y244000D02*
Y249500D01*
X374000Y252000D01*
X374150Y251850D02*
X385000D01*
X374000Y252000D02*
X374150Y251850D01*
X385000Y258150D02*
X392000D01*
X392000Y258150D01*
X393000D01*
X371500Y259682D02*
Y266000D01*
X332500Y272874D02*
X333626D01*
X342500Y264000D01*
Y240000D02*
Y255500D01*
X332500Y230000D02*
X342500Y240000D01*
X360000Y251756D02*
X360488Y252244D01*
Y257756D01*
D13*
X374000Y285000D02*
D03*
D14*
X354750Y224256D02*
D03*
Y285744D02*
D03*
X408000Y255000D02*
D03*
D15*
X332500Y288622D02*
D03*
Y280748D02*
D03*
Y272874D02*
D03*
Y265000D02*
D03*
X333000Y244622D02*
D03*
Y236748D02*
D03*
Y228874D02*
D03*
Y221000D02*
D03*
D16*
X357000Y251500D02*
D03*
X359697Y255000D02*
D03*
X376500Y262500D02*
D03*
X377000Y247000D02*
D03*
X361000Y239000D02*
D03*
X357000D02*
D03*
X353000D02*
D03*
Y235000D02*
D03*
X357000D02*
D03*
X361000D02*
D03*
X365000Y231000D02*
D03*
Y239000D02*
D03*
Y235000D02*
D03*
X363000Y292000D02*
D03*
X367000D02*
D03*
X371000D02*
D03*
X375000D02*
D03*
Y218000D02*
D03*
X371000D02*
D03*
X367000D02*
D03*
X363000D02*
D03*
X375000Y296000D02*
D03*
X371000D02*
D03*
X367000D02*
D03*
X363000D02*
D03*
X359000D02*
D03*
X355000D02*
D03*
X351000D02*
D03*
X347000D02*
D03*
X343000D02*
D03*
X365000Y275000D02*
D03*
Y271000D02*
D03*
Y279000D02*
D03*
X335000Y258000D02*
D03*
X339000D02*
D03*
X331000D02*
D03*
X343000Y214000D02*
D03*
X347000D02*
D03*
X351000D02*
D03*
X355000D02*
D03*
X359000D02*
D03*
X363000D02*
D03*
X367000D02*
D03*
X371000D02*
D03*
X375000D02*
D03*
X361000Y275000D02*
D03*
X357000D02*
D03*
X353000D02*
D03*
Y271000D02*
D03*
X357000D02*
D03*
X361000D02*
D03*
X339000Y252000D02*
D03*
X335000D02*
D03*
X331000D02*
D03*
D17*
X381500Y244000D02*
D03*
X384500D02*
D03*
X374500D02*
D03*
X371500D02*
D03*
X381500Y266000D02*
D03*
X384500D02*
D03*
X374500D02*
D03*
X371500D02*
D03*
Y255000D02*
D03*
X374500D02*
D03*
D18*
X392500Y258150D02*
D03*
Y251850D02*
D03*
D19*
X366000Y259000D02*
D03*
X360488D02*
D03*
X360488Y251000D02*
D03*
X366000D02*
D03*
D20*
X384000Y251850D02*
D03*
Y258150D02*
D03*
D21*
X354000Y257756D02*
D03*
Y252244D02*
D03*
M02*
